<svg width="330" height="43" viewBox="0 0 330 43" fill="none" xmlns="http://www.w3.org/2000/svg">
<path d="M196.159 19H194.045C193.92 18.392 193.702 17.858 193.389 17.3977C193.082 16.9375 192.707 16.5511 192.264 16.2386C191.827 15.9205 191.341 15.6818 190.807 15.5227C190.273 15.3636 189.716 15.2841 189.136 15.2841C188.08 15.2841 187.122 15.5511 186.264 16.0852C185.412 16.6193 184.733 17.4062 184.227 18.446C183.727 19.4858 183.477 20.7614 183.477 22.2727C183.477 23.7841 183.727 25.0597 184.227 26.0994C184.733 27.1392 185.412 27.9261 186.264 28.4602C187.122 28.9943 188.08 29.2614 189.136 29.2614C189.716 29.2614 190.273 29.1818 190.807 29.0227C191.341 28.8636 191.827 28.6278 192.264 28.3153C192.707 27.9972 193.082 27.608 193.389 27.1477C193.702 26.6818 193.92 26.1477 194.045 25.5455H196.159C196 26.4375 195.71 27.2358 195.29 27.9403C194.869 28.6449 194.347 29.2443 193.722 29.7386C193.097 30.2273 192.395 30.5994 191.616 30.8551C190.844 31.1108 190.017 31.2386 189.136 31.2386C187.648 31.2386 186.324 30.875 185.165 30.1477C184.006 29.4205 183.094 28.3864 182.429 27.0455C181.764 25.7045 181.432 24.1136 181.432 22.2727C181.432 20.4318 181.764 18.8409 182.429 17.5C183.094 16.1591 184.006 15.125 185.165 14.3977C186.324 13.6705 187.648 13.3068 189.136 13.3068C190.017 13.3068 190.844 13.4347 191.616 13.6903C192.395 13.946 193.097 14.321 193.722 14.8153C194.347 15.304 194.869 15.9006 195.29 16.6051C195.71 17.304 196 18.1023 196.159 19ZM204.62 31.2727C203.438 31.2727 202.401 30.9915 201.509 30.429C200.623 29.8665 199.93 29.0795 199.43 28.0682C198.935 27.0568 198.688 25.875 198.688 24.5227C198.688 23.1591 198.935 21.9687 199.43 20.9517C199.93 19.9347 200.623 19.1449 201.509 18.5824C202.401 18.0199 203.438 17.7386 204.62 17.7386C205.802 17.7386 206.836 18.0199 207.722 18.5824C208.614 19.1449 209.308 19.9347 209.802 20.9517C210.302 21.9687 210.552 23.1591 210.552 24.5227C210.552 25.875 210.302 27.0568 209.802 28.0682C209.308 29.0795 208.614 29.8665 207.722 30.429C206.836 30.9915 205.802 31.2727 204.62 31.2727ZM204.62 29.4659C205.518 29.4659 206.256 29.2358 206.836 28.7756C207.415 28.3153 207.844 27.7102 208.123 26.9602C208.401 26.2102 208.54 25.3977 208.54 24.5227C208.54 23.6477 208.401 22.8324 208.123 22.0767C207.844 21.321 207.415 20.7102 206.836 20.2443C206.256 19.7784 205.518 19.5455 204.62 19.5455C203.722 19.5455 202.984 19.7784 202.404 20.2443C201.825 20.7102 201.396 21.321 201.117 22.0767C200.839 22.8324 200.7 23.6477 200.7 24.5227C200.7 25.3977 200.839 26.2102 201.117 26.9602C201.396 27.7102 201.825 28.3153 202.404 28.7756C202.984 29.2358 203.722 29.4659 204.62 29.4659ZM215.634 23.125V31H213.622V17.9091H215.565V19.9545H215.736C216.043 19.2898 216.509 18.7557 217.134 18.3523C217.759 17.9432 218.565 17.7386 219.554 17.7386C220.44 17.7386 221.216 17.9205 221.881 18.2841C222.545 18.642 223.063 19.1875 223.432 19.9205C223.801 20.6477 223.986 21.5682 223.986 22.6818V31H221.974V22.8182C221.974 21.7898 221.707 20.9886 221.173 20.4148C220.639 19.8352 219.906 19.5455 218.974 19.5455C218.332 19.5455 217.759 19.6847 217.253 19.9631C216.753 20.2415 216.358 20.6477 216.068 21.1818C215.778 21.7159 215.634 22.3636 215.634 23.125ZM236.934 20.8409L235.127 21.3523C235.013 21.0511 234.846 20.7585 234.624 20.4744C234.408 20.1847 234.113 19.946 233.738 19.7585C233.363 19.571 232.883 19.4773 232.298 19.4773C231.496 19.4773 230.829 19.6619 230.295 20.0312C229.766 20.3949 229.502 20.858 229.502 21.4205C229.502 21.9205 229.684 22.3153 230.048 22.6051C230.411 22.8949 230.979 23.1364 231.752 23.3295L233.695 23.8068C234.866 24.0909 235.738 24.5256 236.312 25.1108C236.886 25.6903 237.173 26.4375 237.173 27.3523C237.173 28.1023 236.957 28.7727 236.525 29.3636C236.099 29.9545 235.502 30.4205 234.735 30.7614C233.968 31.1023 233.076 31.2727 232.059 31.2727C230.724 31.2727 229.619 30.983 228.744 30.4034C227.869 29.8239 227.315 28.9773 227.082 27.8636L228.991 27.3864C229.173 28.0909 229.516 28.6193 230.022 28.9716C230.533 29.3239 231.201 29.5 232.025 29.5C232.962 29.5 233.707 29.3011 234.258 28.9034C234.815 28.5 235.093 28.017 235.093 27.4545C235.093 27 234.934 26.6193 234.616 26.3125C234.298 26 233.809 25.767 233.15 25.6136L230.968 25.1023C229.769 24.8182 228.888 24.3778 228.326 23.7812C227.769 23.179 227.491 22.4261 227.491 21.5227C227.491 20.7841 227.698 20.1307 228.113 19.5625C228.533 18.9943 229.104 18.5483 229.826 18.2244C230.553 17.9006 231.377 17.7386 232.298 17.7386C233.593 17.7386 234.61 18.0227 235.349 18.5909C236.093 19.1591 236.621 19.9091 236.934 20.8409ZM245.893 17.9091V19.6136H239.109V17.9091H245.893ZM241.087 14.7727H243.098V27.25C243.098 27.8182 243.18 28.2443 243.345 28.5284C243.516 28.8068 243.732 28.9943 243.993 29.0909C244.26 29.1818 244.541 29.2273 244.837 29.2273C245.058 29.2273 245.24 29.2159 245.382 29.1932C245.524 29.1648 245.638 29.142 245.723 29.125L246.132 30.9318C245.996 30.983 245.805 31.0341 245.561 31.0852C245.317 31.142 245.007 31.1705 244.632 31.1705C244.064 31.1705 243.507 31.0483 242.962 30.804C242.422 30.5597 241.973 30.1875 241.615 29.6875C241.263 29.1875 241.087 28.5568 241.087 27.7955V14.7727ZM248.919 31V17.9091H250.862V19.8864H250.999C251.237 19.2386 251.669 18.7131 252.294 18.3097C252.919 17.9062 253.624 17.7045 254.408 17.7045C254.555 17.7045 254.74 17.7074 254.962 17.7131C255.183 17.7187 255.351 17.7273 255.464 17.7386V19.7841C255.396 19.767 255.24 19.7415 254.996 19.7074C254.757 19.6676 254.504 19.6477 254.237 19.6477C253.601 19.6477 253.033 19.7812 252.533 20.0483C252.038 20.3097 251.646 20.6733 251.357 21.1392C251.072 21.5994 250.93 22.125 250.93 22.7159V31H248.919ZM266.099 25.6477V17.9091H268.11V31H266.099V28.7841H265.962C265.656 29.4489 265.178 30.0142 264.531 30.4801C263.883 30.9403 263.065 31.1705 262.076 31.1705C261.258 31.1705 260.531 30.9915 259.894 30.6335C259.258 30.2699 258.758 29.7244 258.394 28.9972C258.031 28.2642 257.849 27.3409 257.849 26.2273V17.9091H259.86V26.0909C259.86 27.0455 260.127 27.8068 260.661 28.375C261.201 28.9432 261.888 29.2273 262.724 29.2273C263.224 29.2273 263.732 29.0994 264.249 28.8438C264.772 28.5881 265.21 28.196 265.562 27.6676C265.92 27.1392 266.099 26.4659 266.099 25.6477ZM277.112 31.2727C275.885 31.2727 274.828 30.983 273.942 30.4034C273.055 29.8239 272.374 29.0256 271.896 28.0085C271.419 26.9915 271.18 25.8295 271.18 24.5227C271.18 23.1932 271.425 22.0199 271.913 21.0028C272.408 19.9801 273.095 19.1818 273.976 18.608C274.862 18.0284 275.896 17.7386 277.078 17.7386C277.999 17.7386 278.828 17.9091 279.567 18.25C280.305 18.5909 280.911 19.0682 281.382 19.6818C281.854 20.2955 282.146 21.0114 282.26 21.8295H280.249C280.095 21.233 279.754 20.7045 279.226 20.2443C278.703 19.7784 277.999 19.5455 277.112 19.5455C276.328 19.5455 275.641 19.75 275.05 20.1591C274.464 20.5625 274.007 21.1335 273.678 21.8722C273.354 22.6051 273.192 23.4659 273.192 24.4545C273.192 25.4659 273.351 26.3466 273.669 27.0966C273.993 27.8466 274.447 28.429 275.033 28.8438C275.624 29.2585 276.317 29.4659 277.112 29.4659C277.635 29.4659 278.109 29.375 278.536 29.1932C278.962 29.0114 279.322 28.75 279.618 28.4091C279.913 28.0682 280.124 27.6591 280.249 27.1818H282.26C282.146 27.9545 281.865 28.6506 281.416 29.2699C280.973 29.8835 280.385 30.3722 279.652 30.7358C278.925 31.0938 278.078 31.2727 277.112 31.2727ZM290.893 17.9091V19.6136H284.109V17.9091H290.893ZM286.087 14.7727H288.098V27.25C288.098 27.8182 288.18 28.2443 288.345 28.5284C288.516 28.8068 288.732 28.9943 288.993 29.0909C289.26 29.1818 289.541 29.2273 289.837 29.2273C290.058 29.2273 290.24 29.2159 290.382 29.1932C290.524 29.1648 290.638 29.142 290.723 29.125L291.132 30.9318C290.996 30.983 290.805 31.0341 290.561 31.0852C290.317 31.142 290.007 31.1705 289.632 31.1705C289.064 31.1705 288.507 31.0483 287.962 30.804C287.422 30.5597 286.973 30.1875 286.615 29.6875C286.263 29.1875 286.087 28.5568 286.087 27.7955V14.7727ZM293.919 31V17.9091H295.93V31H293.919ZM294.942 15.7273C294.55 15.7273 294.212 15.5938 293.928 15.3267C293.649 15.0597 293.51 14.7386 293.51 14.3636C293.51 13.9886 293.649 13.6676 293.928 13.4006C294.212 13.1335 294.55 13 294.942 13C295.334 13 295.669 13.1335 295.947 13.4006C296.232 13.6676 296.374 13.9886 296.374 14.3636C296.374 14.7386 296.232 15.0597 295.947 15.3267C295.669 15.5938 295.334 15.7273 294.942 15.7273ZM304.933 31.2727C303.751 31.2727 302.714 30.9915 301.822 30.429C300.935 29.8665 300.242 29.0795 299.742 28.0682C299.248 27.0568 299.001 25.875 299.001 24.5227C299.001 23.1591 299.248 21.9687 299.742 20.9517C300.242 19.9347 300.935 19.1449 301.822 18.5824C302.714 18.0199 303.751 17.7386 304.933 17.7386C306.114 17.7386 307.148 18.0199 308.035 18.5824C308.927 19.1449 309.62 19.9347 310.114 20.9517C310.614 21.9687 310.864 23.1591 310.864 24.5227C310.864 25.875 310.614 27.0568 310.114 28.0682C309.62 29.0795 308.927 29.8665 308.035 30.429C307.148 30.9915 306.114 31.2727 304.933 31.2727ZM304.933 29.4659C305.83 29.4659 306.569 29.2358 307.148 28.7756C307.728 28.3153 308.157 27.7102 308.435 26.9602C308.714 26.2102 308.853 25.3977 308.853 24.5227C308.853 23.6477 308.714 22.8324 308.435 22.0767C308.157 21.321 307.728 20.7102 307.148 20.2443C306.569 19.7784 305.83 19.5455 304.933 19.5455C304.035 19.5455 303.296 19.7784 302.717 20.2443C302.137 20.7102 301.708 21.321 301.43 22.0767C301.151 22.8324 301.012 23.6477 301.012 24.5227C301.012 25.3977 301.151 26.2102 301.43 26.9602C301.708 27.7102 302.137 28.3153 302.717 28.7756C303.296 29.2358 304.035 29.4659 304.933 29.4659ZM315.946 23.125V31H313.935V17.9091H315.878V19.9545H316.048C316.355 19.2898 316.821 18.7557 317.446 18.3523C318.071 17.9432 318.878 17.7386 319.866 17.7386C320.753 17.7386 321.528 17.9205 322.193 18.2841C322.858 18.642 323.375 19.1875 323.744 19.9205C324.114 20.6477 324.298 21.5682 324.298 22.6818V31H322.287V22.8182C322.287 21.7898 322.02 20.9886 321.486 20.4148C320.952 19.8352 320.219 19.5455 319.287 19.5455C318.645 19.5455 318.071 19.6847 317.565 19.9631C317.065 20.2415 316.67 20.6477 316.381 21.1818C316.091 21.7159 315.946 22.3636 315.946 23.125Z" fill="#0871CA"/>
<rect x="177.5" y="10.5" width="152" height="24" stroke="#0871CA"/>
<path d="M30.2756 35V8.81818H35.8111V19.6207H47.0483V8.81818H52.571V35H47.0483V24.1847H35.8111V35H30.2756ZM61.6477 35H55.7159L64.7543 8.81818H71.8878L80.9134 35H74.9815L68.4233 14.8011H68.2188L61.6477 35ZM61.277 24.7088H75.2884V29.0298H61.277V24.7088ZM105.964 8.81818V35H101.183L89.7919 18.5213H89.6001V35H84.0646V8.81818H88.9226L100.224 25.2841H100.454V8.81818H105.964ZM118.869 8.81818H125.696L132.906 26.4091H133.213L140.423 8.81818H147.25V35H141.881V17.9588H141.663L134.888 34.8722H131.232L124.456 17.8949H124.239V35H118.869V8.81818ZM151.811 35V8.81818H162.14C164.118 8.81818 165.805 9.17187 167.203 9.87926C168.609 10.5781 169.679 11.571 170.412 12.858C171.153 14.1364 171.524 15.6406 171.524 17.3707C171.524 19.1094 171.149 20.6051 170.399 21.858C169.649 23.1023 168.562 24.0568 167.139 24.7216C165.724 25.3864 164.011 25.7188 162 25.7188H155.083V21.2699H161.105C162.162 21.2699 163.039 21.125 163.738 20.8352C164.437 20.5455 164.957 20.1108 165.298 19.5312C165.647 18.9517 165.822 18.2315 165.822 17.3707C165.822 16.5014 165.647 15.7685 165.298 15.1719C164.957 14.5753 164.433 14.1236 163.725 13.8168C163.027 13.5014 162.145 13.3438 161.079 13.3438H157.346V35H151.811ZM165.95 23.0852L172.457 35H166.346L159.98 23.0852H165.95Z" fill="#0871CA"/>
<path d="M14.9209 35.0156C14.9902 35.5236 15.0529 35.9926 15.0977 36.3545C15.1187 36.5249 15.1345 36.67 15.1465 36.7832C14.7726 36.8259 14.3905 36.8565 14 36.8721V32.1367C14.1713 32.1259 14.3402 32.109 14.5068 32.0889C14.6178 32.8521 14.7833 34.0076 14.9209 35.0156ZM13.3242 7C14.9434 7.00003 16.4489 7.22716 17.8408 7.68164C19.2328 8.13618 20.4735 8.80391 21.5625 9.68457C22.6514 10.5557 23.5463 11.6257 24.2471 12.8945C24.9573 14.154 25.4218 15.5936 25.6396 17.2129H20.3271C20.1756 16.3417 19.8955 15.5698 19.4883 14.8975C19.0811 14.2158 18.5746 13.6384 17.9688 13.165C17.3627 12.6916 16.671 12.3364 15.8945 12.0996C15.1276 11.8535 14.2992 11.7305 13.4092 11.7305C11.8277 11.7305 10.4257 12.1274 9.2041 12.9229C7.98256 13.7088 7.02623 14.8651 6.33496 16.3896C5.64381 17.9047 5.29785 19.7561 5.29785 21.9434C5.29787 24.1687 5.64369 26.0438 6.33496 27.5684C7.03567 29.0834 7.9921 30.2294 9.2041 31.0059C10.3051 31.6972 11.5489 32.0753 12.9346 32.1436L11.543 36.7842C9.69512 36.5693 8.00672 36.012 6.47754 35.1104C4.47012 33.9267 2.88868 32.218 1.7334 29.9834C0.578117 27.7486 2.18594e-05 25.0683 0 21.9434C0 18.8089 0.582298 16.1287 1.74707 13.9033C2.91184 11.6685 4.49829 9.9591 6.50586 8.77539C8.51338 7.59176 10.7864 7 13.3242 7ZM25.6396 26.8584C25.4408 28.2408 25.0095 29.538 24.3467 30.75C23.6933 31.9621 22.836 33.0319 21.7754 33.96C20.7148 34.8785 19.4742 35.5983 18.0537 36.1191C17.8495 36.1927 17.6413 36.2584 17.4307 36.3213L15.5039 31.9043C15.6162 31.8762 15.728 31.8484 15.8379 31.8154C16.6049 31.5787 17.2914 31.2328 17.8975 30.7783C18.513 30.3238 19.0296 29.7654 19.4463 29.1025C19.8724 28.4397 20.1662 27.6814 20.3271 26.8291L25.6396 26.8584Z" fill="#0871CA"/>
<mask id="mask0_14_143" style="mask-type:alpha" maskUnits="userSpaceOnUse" x="0" y="7" width="26" height="30">
<path d="M14.9209 35.0156C14.9902 35.5236 15.0529 35.9926 15.0977 36.3545C15.1187 36.5249 15.1345 36.67 15.1465 36.7832C14.7726 36.8259 14.3905 36.8565 14 36.8721V32.1367C14.1713 32.1259 14.3402 32.109 14.5068 32.0889C14.6178 32.8521 14.7833 34.0076 14.9209 35.0156ZM13.3242 7C14.9434 7.00003 16.4489 7.22716 17.8408 7.68164C19.2328 8.13618 20.4735 8.80391 21.5625 9.68457C22.6514 10.5557 23.5463 11.6257 24.2471 12.8945C24.9573 14.154 25.4218 15.5936 25.6396 17.2129H20.3271C20.1756 16.3417 19.8955 15.5698 19.4883 14.8975C19.0811 14.2158 18.5746 13.6384 17.9688 13.165C17.3627 12.6916 16.671 12.3364 15.8945 12.0996C15.1276 11.8535 14.2992 11.7305 13.4092 11.7305C11.8277 11.7305 10.4257 12.1274 9.2041 12.9229C7.98256 13.7088 7.02623 14.8651 6.33496 16.3896C5.64381 17.9047 5.29785 19.7561 5.29785 21.9434C5.29787 24.1687 5.64369 26.0438 6.33496 27.5684C7.03567 29.0834 7.9921 30.2294 9.2041 31.0059C10.3051 31.6972 11.5489 32.0753 12.9346 32.1436L11.543 36.7842C9.69512 36.5693 8.00672 36.012 6.47754 35.1104C4.47012 33.9267 2.88868 32.218 1.7334 29.9834C0.578117 27.7486 2.18594e-05 25.0683 0 21.9434C0 18.8089 0.582298 16.1287 1.74707 13.9033C2.91184 11.6685 4.49829 9.9591 6.50586 8.77539C8.51338 7.59176 10.7864 7 13.3242 7ZM25.6396 26.8584C25.4408 28.2408 25.0095 29.538 24.3467 30.75C23.6933 31.9621 22.836 33.0319 21.7754 33.96C20.7148 34.8785 19.4742 35.5983 18.0537 36.1191C17.8495 36.1927 17.6413 36.2584 17.4307 36.3213L15.5039 31.9043C15.6162 31.8762 15.728 31.8484 15.8379 31.8154C16.6049 31.5787 17.2914 31.2328 17.8975 30.7783C18.513 30.3238 19.0296 29.7654 19.4463 29.1025C19.8724 28.4397 20.1662 27.6814 20.3271 26.8291L25.6396 26.8584Z" fill="#0871CA"/>
</mask>
<g mask="url(#mask0_14_143)">
<rect width="15.0828" height="11.7437" transform="matrix(0.978253 -0.207414 0.219562 0.975599 14 26.1284)" fill="#159F2C"/>
</g>
</svg>
