<svg width="282" height="43" viewBox="0 0 282 43" fill="none" xmlns="http://www.w3.org/2000/svg">
<path d="M187.5 30H182.114V12.5455H187.739C189.432 12.5455 190.881 12.8949 192.085 13.5938C193.29 14.2869 194.213 15.2841 194.855 16.5852C195.497 17.8807 195.818 19.4318 195.818 21.2386C195.818 23.0568 195.494 24.6222 194.847 25.9347C194.199 27.2415 193.256 28.2472 192.017 28.9517C190.778 29.6506 189.273 30 187.5 30ZM184.227 28.125H187.364C188.807 28.125 190.003 27.8466 190.952 27.2898C191.901 26.733 192.608 25.9403 193.074 24.9119C193.54 23.8835 193.773 22.6591 193.773 21.2386C193.773 19.8295 193.543 18.6165 193.082 17.5994C192.622 16.5767 191.935 15.7926 191.02 15.2472C190.105 14.696 188.966 14.4205 187.602 14.4205H184.227V28.125ZM204.58 30.2727C203.318 30.2727 202.23 29.9943 201.315 29.4375C200.406 28.875 199.705 28.0909 199.21 27.0852C198.722 26.0739 198.477 24.8977 198.477 23.5568C198.477 22.2159 198.722 21.0341 199.21 20.0114C199.705 18.983 200.392 18.1818 201.273 17.608C202.159 17.0284 203.193 16.7386 204.375 16.7386C205.057 16.7386 205.73 16.8523 206.395 17.0795C207.06 17.3068 207.665 17.6761 208.21 18.1875C208.756 18.6932 209.19 19.3636 209.514 20.1989C209.838 21.0341 210 22.0625 210 23.2841V24.1364H199.909V22.3977H207.955C207.955 21.6591 207.807 21 207.511 20.4205C207.222 19.8409 206.807 19.3835 206.267 19.0483C205.733 18.7131 205.102 18.5455 204.375 18.5455C203.574 18.5455 202.881 18.7443 202.295 19.142C201.716 19.5341 201.27 20.0455 200.957 20.6761C200.645 21.3068 200.489 21.983 200.489 22.7045V23.8636C200.489 24.8523 200.659 25.6903 201 26.3778C201.347 27.0597 201.827 27.5795 202.44 27.9375C203.054 28.2898 203.767 28.4659 204.58 28.4659C205.108 28.4659 205.585 28.392 206.011 28.2443C206.443 28.0909 206.815 27.8636 207.128 27.5625C207.44 27.2557 207.682 26.875 207.852 26.4205L209.795 26.9659C209.591 27.625 209.247 28.2045 208.764 28.7045C208.281 29.1989 207.685 29.5852 206.974 29.8636C206.264 30.1364 205.466 30.2727 204.58 30.2727ZM218.753 16.9091V18.6136H211.969V16.9091H218.753ZM213.946 13.7727H215.957V26.25C215.957 26.8182 216.04 27.2443 216.205 27.5284C216.375 27.8068 216.591 27.9943 216.852 28.0909C217.119 28.1818 217.401 28.2273 217.696 28.2273C217.918 28.2273 218.099 28.2159 218.241 28.1932C218.384 28.1648 218.497 28.142 218.582 28.125L218.991 29.9318C218.855 29.983 218.665 30.0341 218.42 30.0852C218.176 30.142 217.866 30.1705 217.491 30.1705C216.923 30.1705 216.366 30.0483 215.821 29.804C215.281 29.5597 214.832 29.1875 214.474 28.6875C214.122 28.1875 213.946 27.5568 213.946 26.7955V13.7727ZM225.631 30.3068C224.801 30.3068 224.048 30.1506 223.372 29.8381C222.696 29.5199 222.159 29.0625 221.761 28.4659C221.364 27.8636 221.165 27.1364 221.165 26.2841C221.165 25.5341 221.313 24.9261 221.608 24.4602C221.903 23.9886 222.298 23.6193 222.793 23.3523C223.287 23.0852 223.832 22.8864 224.429 22.7557C225.031 22.6193 225.636 22.5114 226.244 22.4318C227.04 22.3295 227.685 22.2528 228.179 22.2017C228.679 22.1449 229.043 22.0511 229.27 21.9205C229.503 21.7898 229.619 21.5625 229.619 21.2386V21.1705C229.619 20.3295 229.389 19.6761 228.929 19.2102C228.474 18.7443 227.784 18.5114 226.858 18.5114C225.898 18.5114 225.145 18.7216 224.599 19.142C224.054 19.5625 223.67 20.0114 223.449 20.4886L221.54 19.8068C221.881 19.0114 222.335 18.392 222.903 17.9489C223.477 17.5 224.102 17.1875 224.778 17.0114C225.46 16.8295 226.131 16.7386 226.79 16.7386C227.21 16.7386 227.693 16.7898 228.239 16.892C228.79 16.9886 229.321 17.1903 229.832 17.4972C230.349 17.804 230.778 18.267 231.119 18.8864C231.46 19.5057 231.631 20.3352 231.631 21.375V30H229.619V28.2273H229.517C229.381 28.5114 229.153 28.8153 228.835 29.1392C228.517 29.4631 228.094 29.7386 227.565 29.9659C227.037 30.1932 226.392 30.3068 225.631 30.3068ZM225.938 28.5C226.733 28.5 227.403 28.3438 227.949 28.0312C228.5 27.7188 228.915 27.3153 229.193 26.821C229.477 26.3267 229.619 25.8068 229.619 25.2614V23.4205C229.534 23.5227 229.347 23.6165 229.057 23.7017C228.773 23.7812 228.443 23.8523 228.068 23.9148C227.699 23.9716 227.338 24.0227 226.986 24.0682C226.639 24.108 226.358 24.142 226.142 24.1705C225.619 24.2386 225.131 24.3494 224.676 24.5028C224.227 24.6506 223.864 24.875 223.585 25.1761C223.313 25.4716 223.176 25.875 223.176 26.3864C223.176 27.0852 223.435 27.6136 223.952 27.9716C224.474 28.3239 225.136 28.5 225.938 28.5ZM235.302 30V16.9091H237.313V30H235.302ZM236.325 14.7273C235.933 14.7273 235.594 14.5938 235.31 14.3267C235.032 14.0597 234.893 13.7386 234.893 13.3636C234.893 12.9886 235.032 12.6676 235.31 12.4006C235.594 12.1335 235.933 12 236.325 12C236.717 12 237.052 12.1335 237.33 12.4006C237.614 12.6676 237.756 12.9886 237.756 13.3636C237.756 13.7386 237.614 14.0597 237.33 14.3267C237.052 14.5938 236.717 14.7273 236.325 14.7273ZM243.009 12.5455V30H240.997V12.5455H243.009ZM246.692 30V16.9091H248.704V30H246.692ZM247.715 14.7273C247.323 14.7273 246.985 14.5938 246.701 14.3267C246.423 14.0597 246.283 13.7386 246.283 13.3636C246.283 12.9886 246.423 12.6676 246.701 12.4006C246.985 12.1335 247.323 12 247.715 12C248.107 12 248.442 12.1335 248.721 12.4006C249.005 12.6676 249.147 12.9886 249.147 13.3636C249.147 13.7386 249.005 14.0597 248.721 14.3267C248.442 14.5938 248.107 14.7273 247.715 14.7273ZM254.399 22.125V30H252.388V16.9091H254.331V18.9545H254.501C254.808 18.2898 255.274 17.7557 255.899 17.3523C256.524 16.9432 257.331 16.7386 258.32 16.7386C259.206 16.7386 259.982 16.9205 260.646 17.2841C261.311 17.642 261.828 18.1875 262.197 18.9205C262.567 19.6477 262.751 20.5682 262.751 21.6818V30H260.74V21.8182C260.74 20.7898 260.473 19.9886 259.939 19.4148C259.405 18.8352 258.672 18.5455 257.74 18.5455C257.098 18.5455 256.524 18.6847 256.018 18.9631C255.518 19.2415 255.124 19.6477 254.834 20.1818C254.544 20.7159 254.399 21.3636 254.399 22.125ZM271.711 35.1818C270.739 35.1818 269.904 35.0568 269.205 34.8068C268.506 34.5625 267.924 34.2386 267.458 33.8352C266.998 33.4375 266.631 33.0114 266.359 32.5568L267.961 31.4318C268.143 31.6705 268.373 31.9432 268.651 32.25C268.93 32.5625 269.31 32.8324 269.793 33.0597C270.282 33.2926 270.921 33.4091 271.711 33.4091C272.768 33.4091 273.64 33.1534 274.327 32.642C275.015 32.1307 275.359 31.3295 275.359 30.2386V27.5795H275.188C275.04 27.8182 274.83 28.1136 274.558 28.4659C274.29 28.8125 273.904 29.1222 273.398 29.3949C272.898 29.6619 272.222 29.7955 271.37 29.7955C270.313 29.7955 269.364 29.5455 268.523 29.0455C267.688 28.5455 267.026 27.8182 266.538 26.8636C266.055 25.9091 265.813 24.75 265.813 23.3864C265.813 22.0455 266.049 20.8778 266.521 19.8835C266.992 18.8835 267.648 18.1108 268.489 17.5653C269.33 17.0142 270.302 16.7386 271.404 16.7386C272.256 16.7386 272.933 16.8807 273.433 17.1648C273.938 17.4432 274.325 17.7614 274.592 18.1193C274.864 18.4716 275.075 18.7614 275.222 18.9886H275.427V16.9091H277.37V30.375C277.37 31.5 277.114 32.4148 276.603 33.1193C276.097 33.8295 275.415 34.3494 274.558 34.679C273.705 35.0142 272.756 35.1818 271.711 35.1818ZM271.643 27.9886C272.45 27.9886 273.131 27.804 273.688 27.4347C274.245 27.0653 274.668 26.5341 274.958 25.8409C275.248 25.1477 275.393 24.3182 275.393 23.3523C275.393 22.4091 275.251 21.5767 274.967 20.8551C274.683 20.1335 274.262 19.5682 273.705 19.1591C273.148 18.75 272.461 18.5455 271.643 18.5455C270.79 18.5455 270.08 18.7614 269.512 19.1932C268.95 19.625 268.526 20.2045 268.242 20.9318C267.964 21.6591 267.825 22.4659 267.825 23.3523C267.825 24.2614 267.967 25.0653 268.251 25.7642C268.54 26.4574 268.967 27.0028 269.529 27.4006C270.097 27.7926 270.802 27.9886 271.643 27.9886Z" fill="#0871CA"/>
<rect x="177.5" y="9.5" width="104" height="26" stroke="#0871CA"/>
<path d="M30.2756 35V8.81818H35.8111V19.6207H47.0483V8.81818H52.571V35H47.0483V24.1847H35.8111V35H30.2756ZM61.6477 35H55.7159L64.7543 8.81818H71.8878L80.9134 35H74.9815L68.4233 14.8011H68.2188L61.6477 35ZM61.277 24.7088H75.2884V29.0298H61.277V24.7088ZM105.964 8.81818V35H101.183L89.7919 18.5213H89.6001V35H84.0646V8.81818H88.9226L100.224 25.2841H100.454V8.81818H105.964ZM118.869 8.81818H125.696L132.906 26.4091H133.213L140.423 8.81818H147.25V35H141.881V17.9588H141.663L134.888 34.8722H131.232L124.456 17.8949H124.239V35H118.869V8.81818ZM151.811 35V8.81818H162.14C164.118 8.81818 165.805 9.17187 167.203 9.87926C168.609 10.5781 169.679 11.571 170.412 12.858C171.153 14.1364 171.524 15.6406 171.524 17.3707C171.524 19.1094 171.149 20.6051 170.399 21.858C169.649 23.1023 168.562 24.0568 167.139 24.7216C165.724 25.3864 164.011 25.7188 162 25.7188H155.083V21.2699H161.105C162.162 21.2699 163.039 21.125 163.738 20.8352C164.437 20.5455 164.957 20.1108 165.298 19.5312C165.647 18.9517 165.822 18.2315 165.822 17.3707C165.822 16.5014 165.647 15.7685 165.298 15.1719C164.957 14.5753 164.433 14.1236 163.725 13.8168C163.027 13.5014 162.145 13.3438 161.079 13.3438H157.346V35H151.811ZM165.95 23.0852L172.457 35H166.346L159.98 23.0852H165.95Z" fill="#0871CA"/>
<path d="M14.9209 35.0156C14.9902 35.5236 15.0529 35.9926 15.0977 36.3545C15.1187 36.5249 15.1345 36.67 15.1465 36.7832C14.7726 36.8259 14.3905 36.8565 14 36.8721V32.1367C14.1713 32.1259 14.3402 32.109 14.5068 32.0889C14.6178 32.8521 14.7833 34.0076 14.9209 35.0156ZM13.3242 7C14.9434 7.00003 16.4489 7.22716 17.8408 7.68164C19.2328 8.13618 20.4735 8.80391 21.5625 9.68457C22.6514 10.5557 23.5463 11.6257 24.2471 12.8945C24.9573 14.154 25.4218 15.5936 25.6396 17.2129H20.3271C20.1756 16.3417 19.8955 15.5698 19.4883 14.8975C19.0811 14.2158 18.5746 13.6384 17.9688 13.165C17.3627 12.6916 16.671 12.3364 15.8945 12.0996C15.1276 11.8535 14.2992 11.7305 13.4092 11.7305C11.8277 11.7305 10.4257 12.1274 9.2041 12.9229C7.98256 13.7088 7.02623 14.8651 6.33496 16.3896C5.64381 17.9047 5.29785 19.7561 5.29785 21.9434C5.29787 24.1687 5.64369 26.0438 6.33496 27.5684C7.03567 29.0834 7.9921 30.2294 9.2041 31.0059C10.3051 31.6972 11.5489 32.0753 12.9346 32.1436L11.543 36.7842C9.69512 36.5693 8.00672 36.012 6.47754 35.1104C4.47012 33.9267 2.88868 32.218 1.7334 29.9834C0.578117 27.7486 2.18594e-05 25.0683 0 21.9434C0 18.8089 0.582298 16.1287 1.74707 13.9033C2.91184 11.6685 4.49829 9.9591 6.50586 8.77539C8.51338 7.59176 10.7864 7 13.3242 7ZM25.6396 26.8584C25.4408 28.2408 25.0095 29.538 24.3467 30.75C23.6933 31.9621 22.836 33.0319 21.7754 33.96C20.7148 34.8785 19.4742 35.5983 18.0537 36.1191C17.8495 36.1927 17.6413 36.2584 17.4307 36.3213L15.5039 31.9043C15.6162 31.8762 15.728 31.8484 15.8379 31.8154C16.6049 31.5787 17.2914 31.2328 17.8975 30.7783C18.513 30.3238 19.0296 29.7654 19.4463 29.1025C19.8724 28.4397 20.1662 27.6814 20.3271 26.8291L25.6396 26.8584Z" fill="#0871CA"/>
<mask id="mask0_14_143" style="mask-type:alpha" maskUnits="userSpaceOnUse" x="0" y="7" width="26" height="30">
<path d="M14.9209 35.0156C14.9902 35.5236 15.0529 35.9926 15.0977 36.3545C15.1187 36.5249 15.1345 36.67 15.1465 36.7832C14.7726 36.8259 14.3905 36.8565 14 36.8721V32.1367C14.1713 32.1259 14.3402 32.109 14.5068 32.0889C14.6178 32.8521 14.7833 34.0076 14.9209 35.0156ZM13.3242 7C14.9434 7.00003 16.4489 7.22716 17.8408 7.68164C19.2328 8.13618 20.4735 8.80391 21.5625 9.68457C22.6514 10.5557 23.5463 11.6257 24.2471 12.8945C24.9573 14.154 25.4218 15.5936 25.6396 17.2129H20.3271C20.1756 16.3417 19.8955 15.5698 19.4883 14.8975C19.0811 14.2158 18.5746 13.6384 17.9688 13.165C17.3627 12.6916 16.671 12.3364 15.8945 12.0996C15.1276 11.8535 14.2992 11.7305 13.4092 11.7305C11.8277 11.7305 10.4257 12.1274 9.2041 12.9229C7.98256 13.7088 7.02623 14.8651 6.33496 16.3896C5.64381 17.9047 5.29785 19.7561 5.29785 21.9434C5.29787 24.1687 5.64369 26.0438 6.33496 27.5684C7.03567 29.0834 7.9921 30.2294 9.2041 31.0059C10.3051 31.6972 11.5489 32.0753 12.9346 32.1436L11.543 36.7842C9.69512 36.5693 8.00672 36.012 6.47754 35.1104C4.47012 33.9267 2.88868 32.218 1.7334 29.9834C0.578117 27.7486 2.18594e-05 25.0683 0 21.9434C0 18.8089 0.582298 16.1287 1.74707 13.9033C2.91184 11.6685 4.49829 9.9591 6.50586 8.77539C8.51338 7.59176 10.7864 7 13.3242 7ZM25.6396 26.8584C25.4408 28.2408 25.0095 29.538 24.3467 30.75C23.6933 31.9621 22.836 33.0319 21.7754 33.96C20.7148 34.8785 19.4742 35.5983 18.0537 36.1191C17.8495 36.1927 17.6413 36.2584 17.4307 36.3213L15.5039 31.9043C15.6162 31.8762 15.728 31.8484 15.8379 31.8154C16.6049 31.5787 17.2914 31.2328 17.8975 30.7783C18.513 30.3238 19.0296 29.7654 19.4463 29.1025C19.8724 28.4397 20.1662 27.6814 20.3271 26.8291L25.6396 26.8584Z" fill="#0871CA"/>
</mask>
<g mask="url(#mask0_14_143)">
<rect width="15.0828" height="11.7437" transform="matrix(0.978253 -0.207414 0.219562 0.975599 14 26.1284)" fill="#159F2C"/>
</g>
</svg>
