<svg width="317" height="43" viewBox="0 0 317 43" fill="none" xmlns="http://www.w3.org/2000/svg">
<path d="M182.114 30V12.5455H192.648V14.4205H184.227V20.3182H192.102V22.1932H184.227V28.125H192.784V30H182.114ZM198.196 22.125V30H196.185V16.9091H198.128V18.9545H198.298C198.605 18.2898 199.071 17.7557 199.696 17.3523C200.321 16.9432 201.128 16.7386 202.116 16.7386C203.003 16.7386 203.778 16.9205 204.443 17.2841C205.108 17.642 205.625 18.1875 205.994 18.9205C206.364 19.6477 206.548 20.5682 206.548 21.6818V30H204.537V21.8182C204.537 20.7898 204.27 19.9886 203.736 19.4148C203.202 18.8352 202.469 18.5455 201.537 18.5455C200.895 18.5455 200.321 18.6847 199.815 18.9631C199.315 19.2415 198.92 19.6477 198.631 20.1818C198.341 20.7159 198.196 21.3636 198.196 22.125ZM215.508 35.1818C214.536 35.1818 213.701 35.0568 213.002 34.8068C212.303 34.5625 211.721 34.2386 211.255 33.8352C210.795 33.4375 210.428 33.0114 210.156 32.5568L211.758 31.4318C211.94 31.6705 212.17 31.9432 212.448 32.25C212.727 32.5625 213.107 32.8324 213.59 33.0597C214.079 33.2926 214.718 33.4091 215.508 33.4091C216.565 33.4091 217.437 33.1534 218.124 32.642C218.812 32.1307 219.156 31.3295 219.156 30.2386V27.5795H218.985C218.837 27.8182 218.627 28.1136 218.354 28.4659C218.087 28.8125 217.701 29.1222 217.195 29.3949C216.695 29.6619 216.019 29.7955 215.167 29.7955C214.11 29.7955 213.161 29.5455 212.32 29.0455C211.485 28.5455 210.823 27.8182 210.335 26.8636C209.852 25.9091 209.61 24.75 209.61 23.3864C209.61 22.0455 209.846 20.8778 210.317 19.8835C210.789 18.8835 211.445 18.1108 212.286 17.5653C213.127 17.0142 214.099 16.7386 215.201 16.7386C216.053 16.7386 216.729 16.8807 217.229 17.1648C217.735 17.4432 218.121 17.7614 218.388 18.1193C218.661 18.4716 218.871 18.7614 219.019 18.9886H219.224V16.9091H221.167V30.375C221.167 31.5 220.911 32.4148 220.4 33.1193C219.894 33.8295 219.212 34.3494 218.354 34.679C217.502 35.0142 216.553 35.1818 215.508 35.1818ZM215.44 27.9886C216.246 27.9886 216.928 27.804 217.485 27.4347C218.042 27.0653 218.465 26.5341 218.755 25.8409C219.045 25.1477 219.19 24.3182 219.19 23.3523C219.19 22.4091 219.048 21.5767 218.763 20.8551C218.479 20.1335 218.059 19.5682 217.502 19.1591C216.945 18.75 216.258 18.5455 215.44 18.5455C214.587 18.5455 213.877 18.7614 213.309 19.1932C212.746 19.625 212.323 20.2045 212.039 20.9318C211.761 21.6591 211.621 22.4659 211.621 23.3523C211.621 24.2614 211.763 25.0653 212.048 25.7642C212.337 26.4574 212.763 27.0028 213.326 27.4006C213.894 27.7926 214.599 27.9886 215.44 27.9886ZM224.849 30V16.9091H226.86V30H224.849ZM225.871 14.7273C225.479 14.7273 225.141 14.5938 224.857 14.3267C224.579 14.0597 224.44 13.7386 224.44 13.3636C224.44 12.9886 224.579 12.6676 224.857 12.4006C225.141 12.1335 225.479 12 225.871 12C226.263 12 226.599 12.1335 226.877 12.4006C227.161 12.6676 227.303 12.9886 227.303 13.3636C227.303 13.7386 227.161 14.0597 226.877 14.3267C226.599 14.5938 226.263 14.7273 225.871 14.7273ZM232.555 22.125V30H230.544V16.9091H232.487V18.9545H232.658C232.964 18.2898 233.43 17.7557 234.055 17.3523C234.68 16.9432 235.487 16.7386 236.476 16.7386C237.362 16.7386 238.138 16.9205 238.803 17.2841C239.467 17.642 239.984 18.1875 240.354 18.9205C240.723 19.6477 240.908 20.5682 240.908 21.6818V30H238.896V21.8182C238.896 20.7898 238.629 19.9886 238.095 19.4148C237.561 18.8352 236.828 18.5455 235.896 18.5455C235.254 18.5455 234.68 18.6847 234.175 18.9631C233.675 19.2415 233.28 19.6477 232.99 20.1818C232.7 20.7159 232.555 21.3636 232.555 22.125ZM250.072 30.2727C248.81 30.2727 247.722 29.9943 246.808 29.4375C245.898 28.875 245.197 28.0909 244.702 27.0852C244.214 26.0739 243.969 24.8977 243.969 23.5568C243.969 22.2159 244.214 21.0341 244.702 20.0114C245.197 18.983 245.884 18.1818 246.765 17.608C247.651 17.0284 248.685 16.7386 249.867 16.7386C250.549 16.7386 251.222 16.8523 251.887 17.0795C252.552 17.3068 253.157 17.6761 253.702 18.1875C254.248 18.6932 254.683 19.3636 255.006 20.1989C255.33 21.0341 255.492 22.0625 255.492 23.2841V24.1364H245.401V22.3977H253.447C253.447 21.6591 253.299 21 253.004 20.4205C252.714 19.8409 252.299 19.3835 251.759 19.0483C251.225 18.7131 250.594 18.5455 249.867 18.5455C249.066 18.5455 248.373 18.7443 247.788 19.142C247.208 19.5341 246.762 20.0455 246.45 20.6761C246.137 21.3068 245.981 21.983 245.981 22.7045V23.8636C245.981 24.8523 246.151 25.6903 246.492 26.3778C246.839 27.0597 247.319 27.5795 247.933 27.9375C248.546 28.2898 249.259 28.4659 250.072 28.4659C250.6 28.4659 251.077 28.392 251.504 28.2443C251.935 28.0909 252.308 27.8636 252.62 27.5625C252.933 27.2557 253.174 26.875 253.344 26.4205L255.288 26.9659C255.083 27.625 254.739 28.2045 254.256 28.7045C253.773 29.1989 253.177 29.5852 252.467 29.8636C251.756 30.1364 250.958 30.2727 250.072 30.2727ZM264.04 30.2727C262.779 30.2727 261.691 29.9943 260.776 29.4375C259.867 28.875 259.165 28.0909 258.671 27.0852C258.183 26.0739 257.938 24.8977 257.938 23.5568C257.938 22.2159 258.183 21.0341 258.671 20.0114C259.165 18.983 259.853 18.1818 260.734 17.608C261.62 17.0284 262.654 16.7386 263.836 16.7386C264.518 16.7386 265.191 16.8523 265.856 17.0795C266.521 17.3068 267.126 17.6761 267.671 18.1875C268.217 18.6932 268.651 19.3636 268.975 20.1989C269.299 21.0341 269.461 22.0625 269.461 23.2841V24.1364H259.37V22.3977H267.415C267.415 21.6591 267.268 21 266.972 20.4205C266.683 19.8409 266.268 19.3835 265.728 19.0483C265.194 18.7131 264.563 18.5455 263.836 18.5455C263.035 18.5455 262.342 18.7443 261.756 19.142C261.177 19.5341 260.731 20.0455 260.418 20.6761C260.106 21.3068 259.95 21.983 259.95 22.7045V23.8636C259.95 24.8523 260.12 25.6903 260.461 26.3778C260.808 27.0597 261.288 27.5795 261.901 27.9375C262.515 28.2898 263.228 28.4659 264.04 28.4659C264.569 28.4659 265.046 28.392 265.472 28.2443C265.904 28.0909 266.276 27.8636 266.589 27.5625C266.901 27.2557 267.143 26.875 267.313 26.4205L269.256 26.9659C269.052 27.625 268.708 28.2045 268.225 28.7045C267.742 29.1989 267.146 29.5852 266.435 29.8636C265.725 30.1364 264.927 30.2727 264.04 30.2727ZM272.521 30V16.9091H274.464V18.8864H274.6C274.839 18.2386 275.271 17.7131 275.896 17.3097C276.521 16.9062 277.225 16.7045 278.009 16.7045C278.157 16.7045 278.342 16.7074 278.563 16.7131C278.785 16.7187 278.952 16.7273 279.066 16.7386V18.7841C278.998 18.767 278.842 18.7415 278.597 18.7074C278.359 18.6676 278.106 18.6477 277.839 18.6477C277.202 18.6477 276.634 18.7812 276.134 19.0483C275.64 19.3097 275.248 19.6733 274.958 20.1392C274.674 20.5994 274.532 21.125 274.532 21.7159V30H272.521ZM281.45 30V16.9091H283.462V30H281.45ZM282.473 14.7273C282.081 14.7273 281.743 14.5938 281.459 14.3267C281.18 14.0597 281.041 13.7386 281.041 13.3636C281.041 12.9886 281.18 12.6676 281.459 12.4006C281.743 12.1335 282.081 12 282.473 12C282.865 12 283.2 12.1335 283.479 12.4006C283.763 12.6676 283.905 12.9886 283.905 13.3636C283.905 13.7386 283.763 14.0597 283.479 14.3267C283.2 14.5938 282.865 14.7273 282.473 14.7273ZM289.157 22.125V30H287.146V16.9091H289.089V18.9545H289.259C289.566 18.2898 290.032 17.7557 290.657 17.3523C291.282 16.9432 292.089 16.7386 293.077 16.7386C293.964 16.7386 294.739 16.9205 295.404 17.2841C296.069 17.642 296.586 18.1875 296.955 18.9205C297.325 19.6477 297.509 20.5682 297.509 21.6818V30H295.498V21.8182C295.498 20.7898 295.231 19.9886 294.697 19.4148C294.163 18.8352 293.43 18.5455 292.498 18.5455C291.856 18.5455 291.282 18.6847 290.776 18.9631C290.276 19.2415 289.881 19.6477 289.592 20.1818C289.302 20.7159 289.157 21.3636 289.157 22.125ZM306.469 35.1818C305.497 35.1818 304.662 35.0568 303.963 34.8068C303.264 34.5625 302.682 34.2386 302.216 33.8352C301.756 33.4375 301.389 33.0114 301.116 32.5568L302.719 31.4318C302.901 31.6705 303.131 31.9432 303.409 32.25C303.688 32.5625 304.068 32.8324 304.551 33.0597C305.04 33.2926 305.679 33.4091 306.469 33.4091C307.526 33.4091 308.398 33.1534 309.085 32.642C309.773 32.1307 310.116 31.3295 310.116 30.2386V27.5795H309.946C309.798 27.8182 309.588 28.1136 309.315 28.4659C309.048 28.8125 308.662 29.1222 308.156 29.3949C307.656 29.6619 306.98 29.7955 306.128 29.7955C305.071 29.7955 304.122 29.5455 303.281 29.0455C302.446 28.5455 301.784 27.8182 301.295 26.8636C300.813 25.9091 300.571 24.75 300.571 23.3864C300.571 22.0455 300.807 20.8778 301.278 19.8835C301.75 18.8835 302.406 18.1108 303.247 17.5653C304.088 17.0142 305.06 16.7386 306.162 16.7386C307.014 16.7386 307.69 16.8807 308.19 17.1648C308.696 17.4432 309.082 17.7614 309.349 18.1193C309.622 18.4716 309.832 18.7614 309.98 18.9886H310.185V16.9091H312.128V30.375C312.128 31.5 311.872 32.4148 311.361 33.1193C310.855 33.8295 310.173 34.3494 309.315 34.679C308.463 35.0142 307.514 35.1818 306.469 35.1818ZM306.401 27.9886C307.207 27.9886 307.889 27.804 308.446 27.4347C309.003 27.0653 309.426 26.5341 309.716 25.8409C310.006 25.1477 310.151 24.3182 310.151 23.3523C310.151 22.4091 310.009 21.5767 309.724 20.8551C309.44 20.1335 309.02 19.5682 308.463 19.1591C307.906 18.75 307.219 18.5455 306.401 18.5455C305.548 18.5455 304.838 18.7614 304.27 19.1932C303.707 19.625 303.284 20.2045 303 20.9318C302.722 21.6591 302.582 22.4659 302.582 23.3523C302.582 24.2614 302.724 25.0653 303.009 25.7642C303.298 26.4574 303.724 27.0028 304.287 27.4006C304.855 27.7926 305.56 27.9886 306.401 27.9886Z" fill="#0871CA"/>
<rect x="177.5" y="9.5" width="139" height="26" stroke="#0871CA"/>
<path d="M30.2756 35V8.81818H35.8111V19.6207H47.0483V8.81818H52.571V35H47.0483V24.1847H35.8111V35H30.2756ZM61.6477 35H55.7159L64.7543 8.81818H71.8878L80.9134 35H74.9815L68.4233 14.8011H68.2188L61.6477 35ZM61.277 24.7088H75.2884V29.0298H61.277V24.7088ZM105.964 8.81818V35H101.183L89.7919 18.5213H89.6001V35H84.0646V8.81818H88.9226L100.224 25.2841H100.454V8.81818H105.964ZM118.869 8.81818H125.696L132.906 26.4091H133.213L140.423 8.81818H147.25V35H141.881V17.9588H141.663L134.888 34.8722H131.232L124.456 17.8949H124.239V35H118.869V8.81818ZM151.811 35V8.81818H162.14C164.118 8.81818 165.805 9.17187 167.203 9.87926C168.609 10.5781 169.679 11.571 170.412 12.858C171.153 14.1364 171.524 15.6406 171.524 17.3707C171.524 19.1094 171.149 20.6051 170.399 21.858C169.649 23.1023 168.562 24.0568 167.139 24.7216C165.724 25.3864 164.011 25.7188 162 25.7188H155.083V21.2699H161.105C162.162 21.2699 163.039 21.125 163.738 20.8352C164.437 20.5455 164.957 20.1108 165.298 19.5312C165.647 18.9517 165.822 18.2315 165.822 17.3707C165.822 16.5014 165.647 15.7685 165.298 15.1719C164.957 14.5753 164.433 14.1236 163.725 13.8168C163.027 13.5014 162.145 13.3438 161.079 13.3438H157.346V35H151.811ZM165.95 23.0852L172.457 35H166.346L159.98 23.0852H165.95Z" fill="#0871CA"/>
<path d="M14.9209 35.0156C14.9902 35.5236 15.0529 35.9926 15.0977 36.3545C15.1187 36.5249 15.1345 36.67 15.1465 36.7832C14.7726 36.8259 14.3905 36.8565 14 36.8721V32.1367C14.1713 32.1259 14.3402 32.109 14.5068 32.0889C14.6178 32.8521 14.7833 34.0076 14.9209 35.0156ZM13.3242 7C14.9434 7.00003 16.4489 7.22716 17.8408 7.68164C19.2328 8.13618 20.4735 8.80391 21.5625 9.68457C22.6514 10.5557 23.5463 11.6257 24.2471 12.8945C24.9573 14.154 25.4218 15.5936 25.6396 17.2129H20.3271C20.1756 16.3417 19.8955 15.5698 19.4883 14.8975C19.0811 14.2158 18.5746 13.6384 17.9688 13.165C17.3627 12.6916 16.671 12.3364 15.8945 12.0996C15.1276 11.8535 14.2992 11.7305 13.4092 11.7305C11.8277 11.7305 10.4257 12.1274 9.2041 12.9229C7.98256 13.7088 7.02623 14.8651 6.33496 16.3896C5.64381 17.9047 5.29785 19.7561 5.29785 21.9434C5.29787 24.1687 5.64369 26.0438 6.33496 27.5684C7.03567 29.0834 7.9921 30.2294 9.2041 31.0059C10.3051 31.6972 11.5489 32.0753 12.9346 32.1436L11.543 36.7842C9.69512 36.5693 8.00672 36.012 6.47754 35.1104C4.47012 33.9267 2.88868 32.218 1.7334 29.9834C0.578117 27.7486 2.18594e-05 25.0683 0 21.9434C0 18.8089 0.582298 16.1287 1.74707 13.9033C2.91184 11.6685 4.49829 9.9591 6.50586 8.77539C8.51338 7.59176 10.7864 7 13.3242 7ZM25.6396 26.8584C25.4408 28.2408 25.0095 29.538 24.3467 30.75C23.6933 31.9621 22.836 33.0319 21.7754 33.96C20.7148 34.8785 19.4742 35.5983 18.0537 36.1191C17.8495 36.1927 17.6413 36.2584 17.4307 36.3213L15.5039 31.9043C15.6162 31.8762 15.728 31.8484 15.8379 31.8154C16.6049 31.5787 17.2914 31.2328 17.8975 30.7783C18.513 30.3238 19.0296 29.7654 19.4463 29.1025C19.8724 28.4397 20.1662 27.6814 20.3271 26.8291L25.6396 26.8584Z" fill="#0871CA"/>
<mask id="mask0_14_143" style="mask-type:alpha" maskUnits="userSpaceOnUse" x="0" y="7" width="26" height="30">
<path d="M14.9209 35.0156C14.9902 35.5236 15.0529 35.9926 15.0977 36.3545C15.1187 36.5249 15.1345 36.67 15.1465 36.7832C14.7726 36.8259 14.3905 36.8565 14 36.8721V32.1367C14.1713 32.1259 14.3402 32.109 14.5068 32.0889C14.6178 32.8521 14.7833 34.0076 14.9209 35.0156ZM13.3242 7C14.9434 7.00003 16.4489 7.22716 17.8408 7.68164C19.2328 8.13618 20.4735 8.80391 21.5625 9.68457C22.6514 10.5557 23.5463 11.6257 24.2471 12.8945C24.9573 14.154 25.4218 15.5936 25.6396 17.2129H20.3271C20.1756 16.3417 19.8955 15.5698 19.4883 14.8975C19.0811 14.2158 18.5746 13.6384 17.9688 13.165C17.3627 12.6916 16.671 12.3364 15.8945 12.0996C15.1276 11.8535 14.2992 11.7305 13.4092 11.7305C11.8277 11.7305 10.4257 12.1274 9.2041 12.9229C7.98256 13.7088 7.02623 14.8651 6.33496 16.3896C5.64381 17.9047 5.29785 19.7561 5.29785 21.9434C5.29787 24.1687 5.64369 26.0438 6.33496 27.5684C7.03567 29.0834 7.9921 30.2294 9.2041 31.0059C10.3051 31.6972 11.5489 32.0753 12.9346 32.1436L11.543 36.7842C9.69512 36.5693 8.00672 36.012 6.47754 35.1104C4.47012 33.9267 2.88868 32.218 1.7334 29.9834C0.578117 27.7486 2.18594e-05 25.0683 0 21.9434C0 18.8089 0.582298 16.1287 1.74707 13.9033C2.91184 11.6685 4.49829 9.9591 6.50586 8.77539C8.51338 7.59176 10.7864 7 13.3242 7ZM25.6396 26.8584C25.4408 28.2408 25.0095 29.538 24.3467 30.75C23.6933 31.9621 22.836 33.0319 21.7754 33.96C20.7148 34.8785 19.4742 35.5983 18.0537 36.1191C17.8495 36.1927 17.6413 36.2584 17.4307 36.3213L15.5039 31.9043C15.6162 31.8762 15.728 31.8484 15.8379 31.8154C16.6049 31.5787 17.2914 31.2328 17.8975 30.7783C18.513 30.3238 19.0296 29.7654 19.4463 29.1025C19.8724 28.4397 20.1662 27.6814 20.3271 26.8291L25.6396 26.8584Z" fill="#0871CA"/>
</mask>
<g mask="url(#mask0_14_143)">
<rect width="15.0828" height="11.7437" transform="matrix(0.978253 -0.207414 0.219562 0.975599 14 26.1284)" fill="#159F2C"/>
</g>
</svg>
