<svg width="254" height="43" viewBox="0 0 254 43" fill="none" xmlns="http://www.w3.org/2000/svg">
<path d="M182.114 30V12.5455H188.011C189.375 12.5455 190.494 12.7784 191.369 13.2443C192.244 13.7045 192.892 14.3381 193.312 15.1449C193.733 15.9517 193.943 16.8693 193.943 17.8977C193.943 18.9261 193.733 19.8381 193.312 20.6335C192.892 21.429 192.247 22.054 191.378 22.5085C190.509 22.9574 189.398 23.1818 188.045 23.1818H183.273V21.2727H187.977C188.909 21.2727 189.659 21.1364 190.227 20.8636C190.801 20.5909 191.216 20.2045 191.472 19.7045C191.733 19.1989 191.864 18.5966 191.864 17.8977C191.864 17.1989 191.733 16.5881 191.472 16.0653C191.21 15.5426 190.793 15.1392 190.219 14.8551C189.645 14.5653 188.886 14.4205 187.943 14.4205H184.227V30H182.114ZM190.33 22.1591L194.625 30H192.17L187.943 22.1591H190.33ZM202.54 30.2727C201.279 30.2727 200.191 29.9943 199.276 29.4375C198.367 28.875 197.665 28.0909 197.171 27.0852C196.683 26.0739 196.438 24.8977 196.438 23.5568C196.438 22.2159 196.683 21.0341 197.171 20.0114C197.665 18.983 198.353 18.1818 199.234 17.608C200.12 17.0284 201.154 16.7386 202.336 16.7386C203.018 16.7386 203.691 16.8523 204.356 17.0795C205.021 17.3068 205.626 17.6761 206.171 18.1875C206.717 18.6932 207.151 19.3636 207.475 20.1989C207.799 21.0341 207.961 22.0625 207.961 23.2841V24.1364H197.87V22.3977H205.915C205.915 21.6591 205.768 21 205.472 20.4205C205.183 19.8409 204.768 19.3835 204.228 19.0483C203.694 18.7131 203.063 18.5455 202.336 18.5455C201.535 18.5455 200.842 18.7443 200.256 19.142C199.677 19.5341 199.231 20.0455 198.918 20.6761C198.606 21.3068 198.45 21.983 198.45 22.7045V23.8636C198.45 24.8523 198.62 25.6903 198.961 26.3778C199.308 27.0597 199.788 27.5795 200.401 27.9375C201.015 28.2898 201.728 28.4659 202.54 28.4659C203.069 28.4659 203.546 28.392 203.972 28.2443C204.404 28.0909 204.776 27.8636 205.089 27.5625C205.401 27.2557 205.643 26.875 205.813 26.4205L207.756 26.9659C207.552 27.625 207.208 28.2045 206.725 28.7045C206.242 29.1989 205.646 29.5852 204.935 29.8636C204.225 30.1364 203.427 30.2727 202.54 30.2727ZM213.032 22.125V30H211.021V16.9091H212.964V18.9545H213.134C213.441 18.2898 213.907 17.7557 214.532 17.3523C215.157 16.9432 215.964 16.7386 216.952 16.7386C217.839 16.7386 218.614 16.9205 219.279 17.2841C219.944 17.642 220.461 18.1875 220.83 18.9205C221.2 19.6477 221.384 20.5682 221.384 21.6818V30H219.373V21.8182C219.373 20.7898 219.106 19.9886 218.572 19.4148C218.038 18.8352 217.305 18.5455 216.373 18.5455C215.731 18.5455 215.157 18.6847 214.651 18.9631C214.151 19.2415 213.756 19.6477 213.467 20.1818C213.177 20.7159 213.032 21.3636 213.032 22.125ZM230.753 16.9091V18.6136H223.969V16.9091H230.753ZM225.946 13.7727H227.957V26.25C227.957 26.8182 228.04 27.2443 228.205 27.5284C228.375 27.8068 228.591 27.9943 228.852 28.0909C229.119 28.1818 229.401 28.2273 229.696 28.2273C229.918 28.2273 230.099 28.2159 230.241 28.1932C230.384 28.1648 230.497 28.142 230.582 28.125L230.991 29.9318C230.855 29.983 230.665 30.0341 230.42 30.0852C230.176 30.142 229.866 30.1705 229.491 30.1705C228.923 30.1705 228.366 30.0483 227.821 29.804C227.281 29.5597 226.832 29.1875 226.474 28.6875C226.122 28.1875 225.946 27.5568 225.946 26.7955V13.7727ZM237.631 30.3068C236.801 30.3068 236.048 30.1506 235.372 29.8381C234.696 29.5199 234.159 29.0625 233.761 28.4659C233.364 27.8636 233.165 27.1364 233.165 26.2841C233.165 25.5341 233.313 24.9261 233.608 24.4602C233.903 23.9886 234.298 23.6193 234.793 23.3523C235.287 23.0852 235.832 22.8864 236.429 22.7557C237.031 22.6193 237.636 22.5114 238.244 22.4318C239.04 22.3295 239.685 22.2528 240.179 22.2017C240.679 22.1449 241.043 22.0511 241.27 21.9205C241.503 21.7898 241.619 21.5625 241.619 21.2386V21.1705C241.619 20.3295 241.389 19.6761 240.929 19.2102C240.474 18.7443 239.784 18.5114 238.858 18.5114C237.898 18.5114 237.145 18.7216 236.599 19.142C236.054 19.5625 235.67 20.0114 235.449 20.4886L233.54 19.8068C233.881 19.0114 234.335 18.392 234.903 17.9489C235.477 17.5 236.102 17.1875 236.778 17.0114C237.46 16.8295 238.131 16.7386 238.79 16.7386C239.21 16.7386 239.693 16.7898 240.239 16.892C240.79 16.9886 241.321 17.1903 241.832 17.4972C242.349 17.804 242.778 18.267 243.119 18.8864C243.46 19.5057 243.631 20.3352 243.631 21.375V30H241.619V28.2273H241.517C241.381 28.5114 241.153 28.8153 240.835 29.1392C240.517 29.4631 240.094 29.7386 239.565 29.9659C239.037 30.1932 238.392 30.3068 237.631 30.3068ZM237.938 28.5C238.733 28.5 239.403 28.3438 239.949 28.0312C240.5 27.7188 240.915 27.3153 241.193 26.821C241.477 26.3267 241.619 25.8068 241.619 25.2614V23.4205C241.534 23.5227 241.347 23.6165 241.057 23.7017C240.773 23.7812 240.443 23.8523 240.068 23.9148C239.699 23.9716 239.338 24.0227 238.986 24.0682C238.639 24.108 238.358 24.142 238.142 24.1705C237.619 24.2386 237.131 24.3494 236.676 24.5028C236.227 24.6506 235.864 24.875 235.585 25.1761C235.313 25.4716 235.176 25.875 235.176 26.3864C235.176 27.0852 235.435 27.6136 235.952 27.9716C236.474 28.3239 237.136 28.5 237.938 28.5ZM249.313 12.5455V30H247.302V12.5455H249.313Z" fill="#0871CA"/>
<rect x="177.5" y="9.5" width="76" height="26" stroke="#0871CA"/>
<path d="M30.2756 35V8.81818H35.8111V19.6207H47.0483V8.81818H52.571V35H47.0483V24.1847H35.8111V35H30.2756ZM61.6477 35H55.7159L64.7543 8.81818H71.8878L80.9134 35H74.9815L68.4233 14.8011H68.2188L61.6477 35ZM61.277 24.7088H75.2884V29.0298H61.277V24.7088ZM105.964 8.81818V35H101.183L89.7919 18.5213H89.6001V35H84.0646V8.81818H88.9226L100.224 25.2841H100.454V8.81818H105.964ZM118.869 8.81818H125.696L132.906 26.4091H133.213L140.423 8.81818H147.25V35H141.881V17.9588H141.663L134.888 34.8722H131.232L124.456 17.8949H124.239V35H118.869V8.81818ZM151.811 35V8.81818H162.14C164.118 8.81818 165.805 9.17187 167.203 9.87926C168.609 10.5781 169.679 11.571 170.412 12.858C171.153 14.1364 171.524 15.6406 171.524 17.3707C171.524 19.1094 171.149 20.6051 170.399 21.858C169.649 23.1023 168.562 24.0568 167.139 24.7216C165.724 25.3864 164.011 25.7188 162 25.7188H155.083V21.2699H161.105C162.162 21.2699 163.039 21.125 163.738 20.8352C164.437 20.5455 164.957 20.1108 165.298 19.5312C165.647 18.9517 165.822 18.2315 165.822 17.3707C165.822 16.5014 165.647 15.7685 165.298 15.1719C164.957 14.5753 164.433 14.1236 163.725 13.8168C163.027 13.5014 162.145 13.3438 161.079 13.3438H157.346V35H151.811ZM165.95 23.0852L172.457 35H166.346L159.98 23.0852H165.95Z" fill="#0871CA"/>
<path d="M14.9209 35.0156C14.9902 35.5236 15.0529 35.9926 15.0977 36.3545C15.1187 36.5249 15.1345 36.67 15.1465 36.7832C14.7726 36.8259 14.3905 36.8565 14 36.8721V32.1367C14.1713 32.1259 14.3402 32.109 14.5068 32.0889C14.6178 32.8521 14.7833 34.0076 14.9209 35.0156ZM13.3242 7C14.9434 7.00003 16.4489 7.22716 17.8408 7.68164C19.2328 8.13618 20.4735 8.80391 21.5625 9.68457C22.6514 10.5557 23.5463 11.6257 24.2471 12.8945C24.9573 14.154 25.4218 15.5936 25.6396 17.2129H20.3271C20.1756 16.3417 19.8955 15.5698 19.4883 14.8975C19.0811 14.2158 18.5746 13.6384 17.9688 13.165C17.3627 12.6916 16.671 12.3364 15.8945 12.0996C15.1276 11.8535 14.2992 11.7305 13.4092 11.7305C11.8277 11.7305 10.4257 12.1274 9.2041 12.9229C7.98256 13.7088 7.02623 14.8651 6.33496 16.3896C5.64381 17.9047 5.29785 19.7561 5.29785 21.9434C5.29787 24.1687 5.64369 26.0438 6.33496 27.5684C7.03567 29.0834 7.9921 30.2294 9.2041 31.0059C10.3051 31.6972 11.5489 32.0753 12.9346 32.1436L11.543 36.7842C9.69512 36.5693 8.00672 36.012 6.47754 35.1104C4.47012 33.9267 2.88868 32.218 1.7334 29.9834C0.578117 27.7486 2.18594e-05 25.0683 0 21.9434C0 18.8089 0.582298 16.1287 1.74707 13.9033C2.91184 11.6685 4.49829 9.9591 6.50586 8.77539C8.51338 7.59176 10.7864 7 13.3242 7ZM25.6396 26.8584C25.4408 28.2408 25.0095 29.538 24.3467 30.75C23.6933 31.9621 22.836 33.0319 21.7754 33.96C20.7148 34.8785 19.4742 35.5983 18.0537 36.1191C17.8495 36.1927 17.6413 36.2584 17.4307 36.3213L15.5039 31.9043C15.6162 31.8762 15.728 31.8484 15.8379 31.8154C16.6049 31.5787 17.2914 31.2328 17.8975 30.7783C18.513 30.3238 19.0296 29.7654 19.4463 29.1025C19.8724 28.4397 20.1662 27.6814 20.3271 26.8291L25.6396 26.8584Z" fill="#0871CA"/>
<mask id="mask0_14_143" style="mask-type:alpha" maskUnits="userSpaceOnUse" x="0" y="7" width="26" height="30">
<path d="M14.9209 35.0156C14.9902 35.5236 15.0529 35.9926 15.0977 36.3545C15.1187 36.5249 15.1345 36.67 15.1465 36.7832C14.7726 36.8259 14.3905 36.8565 14 36.8721V32.1367C14.1713 32.1259 14.3402 32.109 14.5068 32.0889C14.6178 32.8521 14.7833 34.0076 14.9209 35.0156ZM13.3242 7C14.9434 7.00003 16.4489 7.22716 17.8408 7.68164C19.2328 8.13618 20.4735 8.80391 21.5625 9.68457C22.6514 10.5557 23.5463 11.6257 24.2471 12.8945C24.9573 14.154 25.4218 15.5936 25.6396 17.2129H20.3271C20.1756 16.3417 19.8955 15.5698 19.4883 14.8975C19.0811 14.2158 18.5746 13.6384 17.9688 13.165C17.3627 12.6916 16.671 12.3364 15.8945 12.0996C15.1276 11.8535 14.2992 11.7305 13.4092 11.7305C11.8277 11.7305 10.4257 12.1274 9.2041 12.9229C7.98256 13.7088 7.02623 14.8651 6.33496 16.3896C5.64381 17.9047 5.29785 19.7561 5.29785 21.9434C5.29787 24.1687 5.64369 26.0438 6.33496 27.5684C7.03567 29.0834 7.9921 30.2294 9.2041 31.0059C10.3051 31.6972 11.5489 32.0753 12.9346 32.1436L11.543 36.7842C9.69512 36.5693 8.00672 36.012 6.47754 35.1104C4.47012 33.9267 2.88868 32.218 1.7334 29.9834C0.578117 27.7486 2.18594e-05 25.0683 0 21.9434C0 18.8089 0.582298 16.1287 1.74707 13.9033C2.91184 11.6685 4.49829 9.9591 6.50586 8.77539C8.51338 7.59176 10.7864 7 13.3242 7ZM25.6396 26.8584C25.4408 28.2408 25.0095 29.538 24.3467 30.75C23.6933 31.9621 22.836 33.0319 21.7754 33.96C20.7148 34.8785 19.4742 35.5983 18.0537 36.1191C17.8495 36.1927 17.6413 36.2584 17.4307 36.3213L15.5039 31.9043C15.6162 31.8762 15.728 31.8484 15.8379 31.8154C16.6049 31.5787 17.2914 31.2328 17.8975 30.7783C18.513 30.3238 19.0296 29.7654 19.4463 29.1025C19.8724 28.4397 20.1662 27.6814 20.3271 26.8291L25.6396 26.8584Z" fill="#0871CA"/>
</mask>
<g mask="url(#mask0_14_143)">
<rect width="15.0828" height="11.7437" transform="matrix(0.978253 -0.207414 0.219562 0.975599 14 26.1284)" fill="#159F2C"/>
</g>
</svg>
