<svg width="233" height="43" viewBox="0 0 233 43" fill="none" xmlns="http://www.w3.org/2000/svg">
<path d="M191.659 16.9091C191.557 16.0455 191.142 15.375 190.415 14.8977C189.688 14.4205 188.795 14.1818 187.739 14.1818C186.966 14.1818 186.29 14.3068 185.71 14.5568C185.136 14.8068 184.688 15.1506 184.364 15.5881C184.045 16.0256 183.886 16.5227 183.886 17.0795C183.886 17.5455 183.997 17.946 184.219 18.2812C184.446 18.6108 184.736 18.8864 185.088 19.108C185.44 19.3239 185.81 19.5028 186.196 19.6449C186.582 19.7812 186.938 19.892 187.261 19.9773L189.034 20.4545C189.489 20.5739 189.994 20.7386 190.551 20.9489C191.114 21.1591 191.651 21.446 192.162 21.8097C192.679 22.1676 193.105 22.6278 193.44 23.1903C193.776 23.7528 193.943 24.4432 193.943 25.2614C193.943 26.2045 193.696 27.0568 193.202 27.8182C192.713 28.5795 191.997 29.1847 191.054 29.6335C190.116 30.0824 188.977 30.3068 187.636 30.3068C186.386 30.3068 185.304 30.1051 184.389 29.7017C183.48 29.2983 182.764 28.7358 182.241 28.0142C181.724 27.2926 181.432 26.4545 181.364 25.5H183.545C183.602 26.1591 183.824 26.7045 184.21 27.1364C184.602 27.5625 185.097 27.8807 185.693 28.0909C186.295 28.2955 186.943 28.3977 187.636 28.3977C188.443 28.3977 189.168 28.267 189.81 28.0057C190.452 27.7386 190.96 27.3693 191.335 26.8977C191.71 26.4205 191.898 25.8636 191.898 25.2273C191.898 24.6477 191.736 24.1761 191.412 23.8125C191.088 23.4489 190.662 23.1534 190.134 22.9261C189.605 22.6989 189.034 22.5 188.42 22.3295L186.273 21.7159C184.909 21.3239 183.83 20.7642 183.034 20.0369C182.239 19.3097 181.841 18.358 181.841 17.1818C181.841 16.2045 182.105 15.3523 182.634 14.625C183.168 13.892 183.884 13.3239 184.781 12.9205C185.685 12.5114 186.693 12.3068 187.807 12.3068C188.932 12.3068 189.932 12.5085 190.807 12.9119C191.682 13.3097 192.375 13.8551 192.886 14.5483C193.403 15.2415 193.676 16.0284 193.705 16.9091H191.659ZM202.839 16.9091V18.6136H196.055V16.9091H202.839ZM198.032 13.7727H200.043V26.25C200.043 26.8182 200.126 27.2443 200.29 27.5284C200.461 27.8068 200.677 27.9943 200.938 28.0909C201.205 28.1818 201.487 28.2273 201.782 28.2273C202.004 28.2273 202.185 28.2159 202.327 28.1932C202.469 28.1648 202.583 28.142 202.668 28.125L203.077 29.9318C202.941 29.983 202.751 30.0341 202.506 30.0852C202.262 30.142 201.952 30.1705 201.577 30.1705C201.009 30.1705 200.452 30.0483 199.907 29.804C199.367 29.5597 198.918 29.1875 198.56 28.6875C198.208 28.1875 198.032 27.5568 198.032 26.7955V13.7727ZM210.808 30.2386C209.66 30.2386 208.671 30.0284 207.842 29.608C207.012 29.1875 206.373 28.6108 205.924 27.8778C205.475 27.1449 205.251 26.3068 205.251 25.3636C205.251 24.6364 205.404 23.9915 205.711 23.429C206.023 22.8608 206.452 22.3352 206.998 21.8523C207.549 21.3636 208.183 20.875 208.898 20.3864L211.421 18.5114C211.915 18.1875 212.31 17.8409 212.606 17.4716C212.907 17.1023 213.058 16.6193 213.058 16.0227C213.058 15.5795 212.862 15.1506 212.469 14.7358C212.083 14.321 211.575 14.1136 210.944 14.1136C210.501 14.1136 210.109 14.2273 209.768 14.4545C209.433 14.6761 209.168 14.9602 208.975 15.3068C208.788 15.6477 208.694 16 208.694 16.3636C208.694 16.7727 208.805 17.1875 209.026 17.608C209.254 18.0227 209.54 18.4489 209.887 18.8864C210.239 19.3182 210.603 19.7614 210.978 20.2159L218.989 30H216.569L209.955 22.0227C209.342 21.2841 208.785 20.6136 208.285 20.0114C207.785 19.4091 207.387 18.8153 207.092 18.2301C206.796 17.6449 206.648 17.0114 206.648 16.3295C206.648 15.5455 206.822 14.858 207.168 14.267C207.521 13.6705 208.012 13.2074 208.643 12.8778C209.279 12.5426 210.023 12.375 210.876 12.375C211.751 12.375 212.504 12.5455 213.134 12.8864C213.765 13.2216 214.251 13.6676 214.592 14.2244C214.933 14.7756 215.103 15.375 215.103 16.0227C215.103 16.858 214.896 17.5824 214.481 18.196C214.066 18.8097 213.501 19.3807 212.785 19.9091L209.308 22.5C208.523 23.0795 207.992 23.642 207.714 24.1875C207.435 24.733 207.296 25.125 207.296 25.3636C207.296 25.9091 207.438 26.4176 207.722 26.8892C208.006 27.3608 208.407 27.7415 208.924 28.0312C209.441 28.321 210.046 28.4659 210.739 28.4659C211.398 28.4659 212.04 28.3267 212.665 28.0483C213.29 27.7642 213.856 27.3551 214.362 26.821C214.873 26.2869 215.276 25.6449 215.572 24.8949C215.873 24.1449 216.023 23.3011 216.023 22.3636H217.967C217.967 23.5227 217.833 24.4687 217.566 25.2017C217.299 25.9347 216.998 26.5085 216.663 26.9233C216.327 27.3381 216.058 27.6477 215.853 27.8523C215.785 27.9375 215.722 28.0227 215.665 28.108C215.609 28.1932 215.546 28.2784 215.478 28.3636C214.915 28.9943 214.205 29.4659 213.347 29.7784C212.489 30.0852 211.643 30.2386 210.808 30.2386ZM226.909 16.9091V18.6136H220.125V16.9091H226.909ZM222.102 13.7727H224.114V26.25C224.114 26.8182 224.196 27.2443 224.361 27.5284C224.531 27.8068 224.747 27.9943 225.009 28.0909C225.276 28.1818 225.557 28.2273 225.852 28.2273C226.074 28.2273 226.256 28.2159 226.398 28.1932C226.54 28.1648 226.653 28.142 226.739 28.125L227.148 29.9318C227.011 29.983 226.821 30.0341 226.577 30.0852C226.332 30.142 226.023 30.1705 225.648 30.1705C225.08 30.1705 224.523 30.0483 223.977 29.804C223.438 29.5597 222.989 29.1875 222.631 28.6875C222.278 28.1875 222.102 27.5568 222.102 26.7955V13.7727Z" fill="#0871CA"/>
<rect x="177.5" y="9.5" width="55" height="26" stroke="#0871CA"/>
<path d="M30.2756 35V8.81818H35.8111V19.6207H47.0483V8.81818H52.571V35H47.0483V24.1847H35.8111V35H30.2756ZM61.6477 35H55.7159L64.7543 8.81818H71.8878L80.9134 35H74.9815L68.4233 14.8011H68.2188L61.6477 35ZM61.277 24.7088H75.2884V29.0298H61.277V24.7088ZM105.964 8.81818V35H101.183L89.7919 18.5213H89.6001V35H84.0646V8.81818H88.9226L100.224 25.2841H100.454V8.81818H105.964ZM118.869 8.81818H125.696L132.906 26.4091H133.213L140.423 8.81818H147.25V35H141.881V17.9588H141.663L134.888 34.8722H131.232L124.456 17.8949H124.239V35H118.869V8.81818ZM151.811 35V8.81818H162.14C164.118 8.81818 165.805 9.17187 167.203 9.87926C168.609 10.5781 169.679 11.571 170.412 12.858C171.153 14.1364 171.524 15.6406 171.524 17.3707C171.524 19.1094 171.149 20.6051 170.399 21.858C169.649 23.1023 168.562 24.0568 167.139 24.7216C165.724 25.3864 164.011 25.7188 162 25.7188H155.083V21.2699H161.105C162.162 21.2699 163.039 21.125 163.738 20.8352C164.437 20.5455 164.957 20.1108 165.298 19.5312C165.647 18.9517 165.822 18.2315 165.822 17.3707C165.822 16.5014 165.647 15.7685 165.298 15.1719C164.957 14.5753 164.433 14.1236 163.725 13.8168C163.027 13.5014 162.145 13.3438 161.079 13.3438H157.346V35H151.811ZM165.95 23.0852L172.457 35H166.346L159.98 23.0852H165.95Z" fill="#0871CA"/>
<path d="M14.9209 35.0156C14.9902 35.5236 15.0529 35.9926 15.0977 36.3545C15.1187 36.5249 15.1345 36.67 15.1465 36.7832C14.7726 36.8259 14.3905 36.8565 14 36.8721V32.1367C14.1713 32.1259 14.3402 32.109 14.5068 32.0889C14.6178 32.8521 14.7833 34.0076 14.9209 35.0156ZM13.3242 7C14.9434 7.00003 16.4489 7.22716 17.8408 7.68164C19.2328 8.13618 20.4735 8.80391 21.5625 9.68457C22.6514 10.5557 23.5463 11.6257 24.2471 12.8945C24.9573 14.154 25.4218 15.5936 25.6396 17.2129H20.3271C20.1756 16.3417 19.8955 15.5698 19.4883 14.8975C19.0811 14.2158 18.5746 13.6384 17.9688 13.165C17.3627 12.6916 16.671 12.3364 15.8945 12.0996C15.1276 11.8535 14.2992 11.7305 13.4092 11.7305C11.8277 11.7305 10.4257 12.1274 9.2041 12.9229C7.98256 13.7088 7.02623 14.8651 6.33496 16.3896C5.64381 17.9047 5.29785 19.7561 5.29785 21.9434C5.29787 24.1687 5.64369 26.0438 6.33496 27.5684C7.03567 29.0834 7.9921 30.2294 9.2041 31.0059C10.3051 31.6972 11.5489 32.0753 12.9346 32.1436L11.543 36.7842C9.69512 36.5693 8.00672 36.012 6.47754 35.1104C4.47012 33.9267 2.88868 32.218 1.7334 29.9834C0.578117 27.7486 2.18594e-05 25.0683 0 21.9434C0 18.8089 0.582298 16.1287 1.74707 13.9033C2.91184 11.6685 4.49829 9.9591 6.50586 8.77539C8.51338 7.59176 10.7864 7 13.3242 7ZM25.6396 26.8584C25.4408 28.2408 25.0095 29.538 24.3467 30.75C23.6933 31.9621 22.836 33.0319 21.7754 33.96C20.7148 34.8785 19.4742 35.5983 18.0537 36.1191C17.8495 36.1927 17.6413 36.2584 17.4307 36.3213L15.5039 31.9043C15.6162 31.8762 15.728 31.8484 15.8379 31.8154C16.6049 31.5787 17.2914 31.2328 17.8975 30.7783C18.513 30.3238 19.0296 29.7654 19.4463 29.1025C19.8724 28.4397 20.1662 27.6814 20.3271 26.8291L25.6396 26.8584Z" fill="#0871CA"/>
<mask id="mask0_14_143" style="mask-type:alpha" maskUnits="userSpaceOnUse" x="0" y="7" width="26" height="30">
<path d="M14.9209 35.0156C14.9902 35.5236 15.0529 35.9926 15.0977 36.3545C15.1187 36.5249 15.1345 36.67 15.1465 36.7832C14.7726 36.8259 14.3905 36.8565 14 36.8721V32.1367C14.1713 32.1259 14.3402 32.109 14.5068 32.0889C14.6178 32.8521 14.7833 34.0076 14.9209 35.0156ZM13.3242 7C14.9434 7.00003 16.4489 7.22716 17.8408 7.68164C19.2328 8.13618 20.4735 8.80391 21.5625 9.68457C22.6514 10.5557 23.5463 11.6257 24.2471 12.8945C24.9573 14.154 25.4218 15.5936 25.6396 17.2129H20.3271C20.1756 16.3417 19.8955 15.5698 19.4883 14.8975C19.0811 14.2158 18.5746 13.6384 17.9688 13.165C17.3627 12.6916 16.671 12.3364 15.8945 12.0996C15.1276 11.8535 14.2992 11.7305 13.4092 11.7305C11.8277 11.7305 10.4257 12.1274 9.2041 12.9229C7.98256 13.7088 7.02623 14.8651 6.33496 16.3896C5.64381 17.9047 5.29785 19.7561 5.29785 21.9434C5.29787 24.1687 5.64369 26.0438 6.33496 27.5684C7.03567 29.0834 7.9921 30.2294 9.2041 31.0059C10.3051 31.6972 11.5489 32.0753 12.9346 32.1436L11.543 36.7842C9.69512 36.5693 8.00672 36.012 6.47754 35.1104C4.47012 33.9267 2.88868 32.218 1.7334 29.9834C0.578117 27.7486 2.18594e-05 25.0683 0 21.9434C0 18.8089 0.582298 16.1287 1.74707 13.9033C2.91184 11.6685 4.49829 9.9591 6.50586 8.77539C8.51338 7.59176 10.7864 7 13.3242 7ZM25.6396 26.8584C25.4408 28.2408 25.0095 29.538 24.3467 30.75C23.6933 31.9621 22.836 33.0319 21.7754 33.96C20.7148 34.8785 19.4742 35.5983 18.0537 36.1191C17.8495 36.1927 17.6413 36.2584 17.4307 36.3213L15.5039 31.9043C15.6162 31.8762 15.728 31.8484 15.8379 31.8154C16.6049 31.5787 17.2914 31.2328 17.8975 30.7783C18.513 30.3238 19.0296 29.7654 19.4463 29.1025C19.8724 28.4397 20.1662 27.6814 20.3271 26.8291L25.6396 26.8584Z" fill="#0871CA"/>
</mask>
<g mask="url(#mask0_14_143)">
<rect width="15.0828" height="11.7437" transform="matrix(0.978253 -0.207414 0.219562 0.975599 14 26.1284)" fill="#159F2C"/>
</g>
</svg>
