<svg width="273" height="43" viewBox="0 0 273 43" fill="none" xmlns="http://www.w3.org/2000/svg">
<path d="M181.159 14.4205V12.5455H194.25V14.4205H188.761V30H186.648V14.4205H181.159ZM195.88 30V16.9091H197.823V18.8864H197.96C198.198 18.2386 198.63 17.7131 199.255 17.3097C199.88 16.9062 200.585 16.7045 201.369 16.7045C201.516 16.7045 201.701 16.7074 201.923 16.7131C202.144 16.7187 202.312 16.7273 202.425 16.7386V18.7841C202.357 18.767 202.201 18.7415 201.957 18.7074C201.718 18.6676 201.465 18.6477 201.198 18.6477C200.562 18.6477 199.994 18.7812 199.494 19.0483C198.999 19.3097 198.607 19.6733 198.317 20.1392C198.033 20.5994 197.891 21.125 197.891 21.7159V30H195.88ZM208.662 30.3068C207.832 30.3068 207.08 30.1506 206.403 29.8381C205.727 29.5199 205.19 29.0625 204.793 28.4659C204.395 27.8636 204.196 27.1364 204.196 26.2841C204.196 25.5341 204.344 24.9261 204.639 24.4602C204.935 23.9886 205.33 23.6193 205.824 23.3523C206.318 23.0852 206.864 22.8864 207.46 22.7557C208.063 22.6193 208.668 22.5114 209.276 22.4318C210.071 22.3295 210.716 22.2528 211.21 22.2017C211.71 22.1449 212.074 22.0511 212.301 21.9205C212.534 21.7898 212.651 21.5625 212.651 21.2386V21.1705C212.651 20.3295 212.42 19.6761 211.96 19.2102C211.506 18.7443 210.815 18.5114 209.889 18.5114C208.929 18.5114 208.176 18.7216 207.631 19.142C207.085 19.5625 206.702 20.0114 206.48 20.4886L204.571 19.8068C204.912 19.0114 205.366 18.392 205.935 17.9489C206.509 17.5 207.134 17.1875 207.81 17.0114C208.491 16.8295 209.162 16.7386 209.821 16.7386C210.241 16.7386 210.724 16.7898 211.27 16.892C211.821 16.9886 212.352 17.1903 212.864 17.4972C213.381 17.804 213.81 18.267 214.151 18.8864C214.491 19.5057 214.662 20.3352 214.662 21.375V30H212.651V28.2273H212.548C212.412 28.5114 212.185 28.8153 211.866 29.1392C211.548 29.4631 211.125 29.7386 210.597 29.9659C210.068 30.1932 209.423 30.3068 208.662 30.3068ZM208.969 28.5C209.764 28.5 210.435 28.3438 210.98 28.0312C211.531 27.7188 211.946 27.3153 212.224 26.821C212.509 26.3267 212.651 25.8068 212.651 25.2614V23.4205C212.565 23.5227 212.378 23.6165 212.088 23.7017C211.804 23.7812 211.474 23.8523 211.099 23.9148C210.73 23.9716 210.369 24.0227 210.017 24.0682C209.67 24.108 209.389 24.142 209.173 24.1705C208.651 24.2386 208.162 24.3494 207.707 24.5028C207.259 24.6506 206.895 24.875 206.616 25.1761C206.344 25.4716 206.207 25.875 206.207 26.3864C206.207 27.0852 206.466 27.6136 206.983 27.9716C207.506 28.3239 208.168 28.5 208.969 28.5ZM223.276 30.2727C222.185 30.2727 221.222 29.9972 220.387 29.446C219.552 28.8892 218.898 28.1051 218.427 27.0938C217.955 26.0767 217.719 24.875 217.719 23.4886C217.719 22.1136 217.955 20.9205 218.427 19.9091C218.898 18.8977 219.555 18.1165 220.396 17.5653C221.237 17.0142 222.208 16.7386 223.31 16.7386C224.163 16.7386 224.836 16.8807 225.33 17.1648C225.83 17.4432 226.211 17.7614 226.472 18.1193C226.739 18.4716 226.947 18.7614 227.094 18.9886H227.265V12.5455H229.276V30H227.333V27.9886H227.094C226.947 28.2273 226.737 28.5284 226.464 28.892C226.191 29.25 225.802 29.571 225.296 29.8551C224.79 30.1335 224.117 30.2727 223.276 30.2727ZM223.549 28.4659C224.356 28.4659 225.038 28.2557 225.594 27.8352C226.151 27.4091 226.575 26.821 226.864 26.071C227.154 25.3153 227.299 24.4432 227.299 23.4545C227.299 22.4773 227.157 21.6222 226.873 20.8892C226.589 20.1506 226.168 19.5767 225.612 19.1676C225.055 18.7528 224.367 18.5455 223.549 18.5455C222.697 18.5455 221.987 18.7642 221.418 19.2017C220.856 19.6335 220.433 20.2216 220.148 20.9659C219.87 21.7045 219.731 22.5341 219.731 23.4545C219.731 24.3864 219.873 25.233 220.157 25.9943C220.447 26.75 220.873 27.3523 221.435 27.8011C222.004 28.2443 222.708 28.4659 223.549 28.4659ZM233.239 30V16.9091H235.251V30H233.239ZM234.262 14.7273C233.87 14.7273 233.532 14.5938 233.248 14.3267C232.969 14.0597 232.83 13.7386 232.83 13.3636C232.83 12.9886 232.969 12.6676 233.248 12.4006C233.532 12.1335 233.87 12 234.262 12C234.654 12 234.989 12.1335 235.268 12.4006C235.552 12.6676 235.694 12.9886 235.694 13.3636C235.694 13.7386 235.552 14.0597 235.268 14.3267C234.989 14.5938 234.654 14.7273 234.262 14.7273ZM240.946 22.125V30H238.935V16.9091H240.878V18.9545H241.048C241.355 18.2898 241.821 17.7557 242.446 17.3523C243.071 16.9432 243.878 16.7386 244.866 16.7386C245.753 16.7386 246.528 16.9205 247.193 17.2841C247.858 17.642 248.375 18.1875 248.744 18.9205C249.114 19.6477 249.298 20.5682 249.298 21.6818V30H247.287V21.8182C247.287 20.7898 247.02 19.9886 246.486 19.4148C245.952 18.8352 245.219 18.5455 244.287 18.5455C243.645 18.5455 243.071 18.6847 242.565 18.9631C242.065 19.2415 241.67 19.6477 241.381 20.1818C241.091 20.7159 240.946 21.3636 240.946 22.125ZM258.258 35.1818C257.286 35.1818 256.451 35.0568 255.752 34.8068C255.053 34.5625 254.471 34.2386 254.005 33.8352C253.545 33.4375 253.178 33.0114 252.906 32.5568L254.508 31.4318C254.69 31.6705 254.92 31.9432 255.198 32.25C255.477 32.5625 255.857 32.8324 256.34 33.0597C256.829 33.2926 257.468 33.4091 258.258 33.4091C259.315 33.4091 260.187 33.1534 260.874 32.642C261.562 32.1307 261.906 31.3295 261.906 30.2386V27.5795H261.735C261.587 27.8182 261.377 28.1136 261.104 28.4659C260.837 28.8125 260.451 29.1222 259.945 29.3949C259.445 29.6619 258.769 29.7955 257.917 29.7955C256.86 29.7955 255.911 29.5455 255.07 29.0455C254.235 28.5455 253.573 27.8182 253.085 26.8636C252.602 25.9091 252.36 24.75 252.36 23.3864C252.36 22.0455 252.596 20.8778 253.067 19.8835C253.539 18.8835 254.195 18.1108 255.036 17.5653C255.877 17.0142 256.849 16.7386 257.951 16.7386C258.803 16.7386 259.479 16.8807 259.979 17.1648C260.485 17.4432 260.871 17.7614 261.138 18.1193C261.411 18.4716 261.621 18.7614 261.769 18.9886H261.974V16.9091H263.917V30.375C263.917 31.5 263.661 32.4148 263.15 33.1193C262.644 33.8295 261.962 34.3494 261.104 34.679C260.252 35.0142 259.303 35.1818 258.258 35.1818ZM258.19 27.9886C258.996 27.9886 259.678 27.804 260.235 27.4347C260.792 27.0653 261.215 26.5341 261.505 25.8409C261.795 25.1477 261.94 24.3182 261.94 23.3523C261.94 22.4091 261.798 21.5767 261.513 20.8551C261.229 20.1335 260.809 19.5682 260.252 19.1591C259.695 18.75 259.008 18.5455 258.19 18.5455C257.337 18.5455 256.627 18.7614 256.059 19.1932C255.496 19.625 255.073 20.2045 254.789 20.9318C254.511 21.6591 254.371 22.4659 254.371 23.3523C254.371 24.2614 254.513 25.0653 254.798 25.7642C255.087 26.4574 255.513 27.0028 256.076 27.4006C256.644 27.7926 257.349 27.9886 258.19 27.9886Z" fill="#0871CA"/>
<rect x="177.5" y="9.5" width="92" height="26" stroke="#0871CA"/>
<path d="M30.2756 35V8.81818H35.8111V19.6207H47.0483V8.81818H52.571V35H47.0483V24.1847H35.8111V35H30.2756ZM61.6477 35H55.7159L64.7543 8.81818H71.8878L80.9134 35H74.9815L68.4233 14.8011H68.2188L61.6477 35ZM61.277 24.7088H75.2884V29.0298H61.277V24.7088ZM105.964 8.81818V35H101.183L89.7919 18.5213H89.6001V35H84.0646V8.81818H88.9226L100.224 25.2841H100.454V8.81818H105.964ZM118.869 8.81818H125.696L132.906 26.4091H133.213L140.423 8.81818H147.25V35H141.881V17.9588H141.663L134.888 34.8722H131.232L124.456 17.8949H124.239V35H118.869V8.81818ZM151.811 35V8.81818H162.14C164.118 8.81818 165.805 9.17187 167.203 9.87926C168.609 10.5781 169.679 11.571 170.412 12.858C171.153 14.1364 171.524 15.6406 171.524 17.3707C171.524 19.1094 171.149 20.6051 170.399 21.858C169.649 23.1023 168.562 24.0568 167.139 24.7216C165.724 25.3864 164.011 25.7188 162 25.7188H155.083V21.2699H161.105C162.162 21.2699 163.039 21.125 163.738 20.8352C164.437 20.5455 164.957 20.1108 165.298 19.5312C165.647 18.9517 165.822 18.2315 165.822 17.3707C165.822 16.5014 165.647 15.7685 165.298 15.1719C164.957 14.5753 164.433 14.1236 163.725 13.8168C163.027 13.5014 162.145 13.3438 161.079 13.3438H157.346V35H151.811ZM165.95 23.0852L172.457 35H166.346L159.98 23.0852H165.95Z" fill="#0871CA"/>
<path d="M14.9209 35.0156C14.9902 35.5236 15.0529 35.9926 15.0977 36.3545C15.1187 36.5249 15.1345 36.67 15.1465 36.7832C14.7726 36.8259 14.3905 36.8565 14 36.8721V32.1367C14.1713 32.1259 14.3402 32.109 14.5068 32.0889C14.6178 32.8521 14.7833 34.0076 14.9209 35.0156ZM13.3242 7C14.9434 7.00003 16.4489 7.22716 17.8408 7.68164C19.2328 8.13618 20.4735 8.80391 21.5625 9.68457C22.6514 10.5557 23.5463 11.6257 24.2471 12.8945C24.9573 14.154 25.4218 15.5936 25.6396 17.2129H20.3271C20.1756 16.3417 19.8955 15.5698 19.4883 14.8975C19.0811 14.2158 18.5746 13.6384 17.9688 13.165C17.3627 12.6916 16.671 12.3364 15.8945 12.0996C15.1276 11.8535 14.2992 11.7305 13.4092 11.7305C11.8277 11.7305 10.4257 12.1274 9.2041 12.9229C7.98256 13.7088 7.02623 14.8651 6.33496 16.3896C5.64381 17.9047 5.29785 19.7561 5.29785 21.9434C5.29787 24.1687 5.64369 26.0438 6.33496 27.5684C7.03567 29.0834 7.9921 30.2294 9.2041 31.0059C10.3051 31.6972 11.5489 32.0753 12.9346 32.1436L11.543 36.7842C9.69512 36.5693 8.00672 36.012 6.47754 35.1104C4.47012 33.9267 2.88868 32.218 1.7334 29.9834C0.578117 27.7486 2.18594e-05 25.0683 0 21.9434C0 18.8089 0.582298 16.1287 1.74707 13.9033C2.91184 11.6685 4.49829 9.9591 6.50586 8.77539C8.51338 7.59176 10.7864 7 13.3242 7ZM25.6396 26.8584C25.4408 28.2408 25.0095 29.538 24.3467 30.75C23.6933 31.9621 22.836 33.0319 21.7754 33.96C20.7148 34.8785 19.4742 35.5983 18.0537 36.1191C17.8495 36.1927 17.6413 36.2584 17.4307 36.3213L15.5039 31.9043C15.6162 31.8762 15.728 31.8484 15.8379 31.8154C16.6049 31.5787 17.2914 31.2328 17.8975 30.7783C18.513 30.3238 19.0296 29.7654 19.4463 29.1025C19.8724 28.4397 20.1662 27.6814 20.3271 26.8291L25.6396 26.8584Z" fill="#0871CA"/>
<mask id="mask0_14_143" style="mask-type:alpha" maskUnits="userSpaceOnUse" x="0" y="7" width="26" height="30">
<path d="M14.9209 35.0156C14.9902 35.5236 15.0529 35.9926 15.0977 36.3545C15.1187 36.5249 15.1345 36.67 15.1465 36.7832C14.7726 36.8259 14.3905 36.8565 14 36.8721V32.1367C14.1713 32.1259 14.3402 32.109 14.5068 32.0889C14.6178 32.8521 14.7833 34.0076 14.9209 35.0156ZM13.3242 7C14.9434 7.00003 16.4489 7.22716 17.8408 7.68164C19.2328 8.13618 20.4735 8.80391 21.5625 9.68457C22.6514 10.5557 23.5463 11.6257 24.2471 12.8945C24.9573 14.154 25.4218 15.5936 25.6396 17.2129H20.3271C20.1756 16.3417 19.8955 15.5698 19.4883 14.8975C19.0811 14.2158 18.5746 13.6384 17.9688 13.165C17.3627 12.6916 16.671 12.3364 15.8945 12.0996C15.1276 11.8535 14.2992 11.7305 13.4092 11.7305C11.8277 11.7305 10.4257 12.1274 9.2041 12.9229C7.98256 13.7088 7.02623 14.8651 6.33496 16.3896C5.64381 17.9047 5.29785 19.7561 5.29785 21.9434C5.29787 24.1687 5.64369 26.0438 6.33496 27.5684C7.03567 29.0834 7.9921 30.2294 9.2041 31.0059C10.3051 31.6972 11.5489 32.0753 12.9346 32.1436L11.543 36.7842C9.69512 36.5693 8.00672 36.012 6.47754 35.1104C4.47012 33.9267 2.88868 32.218 1.7334 29.9834C0.578117 27.7486 2.18594e-05 25.0683 0 21.9434C0 18.8089 0.582298 16.1287 1.74707 13.9033C2.91184 11.6685 4.49829 9.9591 6.50586 8.77539C8.51338 7.59176 10.7864 7 13.3242 7ZM25.6396 26.8584C25.4408 28.2408 25.0095 29.538 24.3467 30.75C23.6933 31.9621 22.836 33.0319 21.7754 33.96C20.7148 34.8785 19.4742 35.5983 18.0537 36.1191C17.8495 36.1927 17.6413 36.2584 17.4307 36.3213L15.5039 31.9043C15.6162 31.8762 15.728 31.8484 15.8379 31.8154C16.6049 31.5787 17.2914 31.2328 17.8975 30.7783C18.513 30.3238 19.0296 29.7654 19.4463 29.1025C19.8724 28.4397 20.1662 27.6814 20.3271 26.8291L25.6396 26.8584Z" fill="#0871CA"/>
</mask>
<g mask="url(#mask0_14_143)">
<rect width="15.0828" height="11.7437" transform="matrix(0.978253 -0.207414 0.219562 0.975599 14 26.1284)" fill="#159F2C"/>
</g>
</svg>
